<svg width="115" height="94" viewBox="0 0 115 94" fill="none" xmlns="http://www.w3.org/2000/svg">
<rect opacity="0.9" width="115" height="89" rx="6.64" fill="#002429"/>
<rect opacity="0.9" width="115" height="94" rx="6.64" fill="#002429"/>
<g opacity="0.9">
<rect x="26" y="12" width="64" height="64" rx="6.64" fill="#002429"/>
</g>
<rect x="36.4341" y="21.374" width="44.2627" height="44.2627" rx="9.64543" fill="#FFCE00"/>
<path d="M65.7993 44.8524C65.2077 43.9479 64.8876 42.0686 65.1286 41.015C65.2465 40.4999 65.2785 39.9205 65.2247 39.2765C65.1723 38.5969 65.0135 38.0079 64.7477 37.5086C64.4818 37.0092 64.123 36.6078 63.6699 36.3041C63.2171 36 62.7247 35.7685 62.1937 35.6089C62.1875 35.607 62.1812 35.6051 62.1749 35.6033C61.1701 35.3043 60.3649 34.4652 60.3649 33.4168V32.3749C60.3649 31.8194 59.9146 31.3691 59.3592 31.3691C58.8037 31.3691 58.3534 31.8194 58.3534 32.3749V34.3678C58.3534 34.8016 58.139 35.1524 57.7053 35.1608C57.2627 35.1693 56.7599 34.8184 56.7599 34.3757V32.375C56.7599 31.8195 56.3096 31.3691 55.7541 31.3691C55.1985 31.3691 54.7482 31.8195 54.7482 32.375V33.9942C54.7482 34.7013 54.1882 35.277 53.4811 35.277L51.982 35.2686C51.2817 35.2646 50.7119 35.8312 50.7119 36.5315C50.7119 37.2291 51.2774 37.7945 51.9749 37.7945H52.1618C52.7138 37.7945 53.0749 38.0381 53.2453 38.5251C53.3177 38.7322 53.3243 38.955 53.3243 39.1744V43.2591C53.3243 43.2694 53.3369 43.2777 53.3472 43.2778C53.3696 43.2781 53.3653 43.2933 53.3429 43.2933C53.3326 43.2933 53.3243 43.3016 53.3243 43.3118V49.5021C53.2547 50.0271 53.0022 50.2899 52.5668 50.2899H52.3422C51.6391 50.2899 51.043 50.8068 50.9432 51.5027C50.8212 52.3543 51.4819 53.1165 52.3422 53.1165H53.3246C53.49 53.1165 53.7294 53.1191 54.043 53.1237C54.4325 53.1302 54.7483 53.4473 54.7483 53.8369V56.064C54.7483 56.6196 55.1987 57.0701 55.7543 57.0701C56.3099 57.0701 56.7603 56.6196 56.7603 56.064V53.9862C56.7603 53.5436 57.0019 53.1855 57.4445 53.1897C57.8782 53.1938 58.3538 53.545 58.3538 53.9787V56.0643C58.3538 56.6198 58.8041 57.0701 59.3596 57.0701C59.9151 57.0701 60.3653 56.6198 60.3653 56.0643V55.0442C60.3653 53.9705 61.2142 53.1162 62.2658 52.8999C62.8188 52.7863 63.348 52.6089 63.853 52.3668C64.3579 52.125 64.7802 51.8236 65.1198 51.4632C65.4595 51.1031 65.7401 50.6447 65.9626 50.0886C66.1843 49.5324 66.326 48.8889 66.3867 48.1576C66.5004 46.7267 66.3044 45.6248 65.7993 44.8524ZM56.799 37.9639C56.799 37.9639 56.7991 37.964 56.7991 37.964C56.8601 37.964 57.0321 37.9614 57.315 37.9562C57.5982 37.9509 57.8332 37.9458 58.0204 37.9406C58.2077 37.9355 58.4603 37.9484 58.7782 37.9793C59.0961 38.0102 59.3638 38.0514 59.5815 38.1028C59.7991 38.1542 60.0388 38.2392 60.2998 38.3576C60.5613 38.4759 60.7702 38.6202 60.9267 38.79C61.0836 38.9599 61.2164 39.1762 61.3251 39.4388C61.434 39.7014 61.4885 40.0025 61.4885 40.3423C61.4885 40.6306 61.4494 40.8933 61.3711 41.1302C61.2929 41.367 61.1751 41.5653 61.0185 41.7249C60.8619 41.8845 60.7005 42.0237 60.535 42.142C60.3697 42.2603 60.1583 42.3556 59.9015 42.4276C59.6447 42.4997 59.4205 42.5564 59.229 42.5975C59.0374 42.6387 58.798 42.6671 58.5106 42.6825C58.2231 42.6978 58.0053 42.7083 57.8574 42.7134C57.7093 42.7185 57.5069 42.7185 57.2499 42.7134C57.001 42.7085 56.7992 42.5038 56.7992 42.2549V37.964C56.7992 37.9639 56.7991 37.9639 56.7991 37.9639H56.7991C56.7991 37.9639 56.799 37.9639 56.799 37.9639ZM62.2921 48.4822C62.2091 48.7191 62.1026 48.9252 61.9721 49.1003C61.8413 49.2751 61.6692 49.4297 61.456 49.5634C61.2428 49.6974 61.0358 49.8053 60.8356 49.8877C60.6352 49.9705 60.3935 50.0421 60.1107 50.1041C59.8273 50.166 59.5793 50.2095 59.3658 50.2354C59.1525 50.2612 58.8979 50.2817 58.6017 50.2973C58.3057 50.3124 58.0748 50.3203 57.9094 50.3203C57.7439 50.3203 57.5349 50.3174 57.2823 50.3124C57.0154 50.3073 56.799 50.0886 56.799 49.8216V45.7049C56.799 45.3621 57.0768 45.0792 57.4194 45.0687C57.7635 45.0583 58.0442 45.0535 58.262 45.0535C58.4797 45.0535 58.7802 45.0687 59.1635 45.0998C59.5465 45.1305 59.8687 45.1766 60.1302 45.2384C60.3913 45.3003 60.6763 45.3954 60.9857 45.5243C61.2948 45.6529 61.5453 45.8099 61.7369 45.9952C61.9285 46.1809 62.0895 46.4174 62.2201 46.7058C62.351 46.994 62.4163 47.3236 62.4163 47.6944C62.4162 47.983 62.3749 48.2451 62.2921 48.4822Z" fill="#002429"/>
<rect opacity="0.2" x="102.293" y="21.7563" width="0.278926" height="44.0702" fill="white"/>
</svg>
