<svg width="115" height="94" viewBox="0 0 115 94" fill="none" xmlns="http://www.w3.org/2000/svg">
<rect opacity="0.9" width="115" height="89" rx="6.64" fill="#002429"/>
<rect opacity="0.9" width="115" height="94" rx="6.64" fill="#002429"/>
<g opacity="0.9">
<rect x="26" y="12" width="64" height="64" rx="6.64" fill="#002429"/>
</g>
<rect x="36.4341" y="21.374" width="44.2627" height="44.2627" rx="9.64543" fill="#FFCE00"/>
<rect opacity="0.2" x="102.293" y="21.7563" width="0.278926" height="44.0702" fill="white"/>
<path d="M49 47.413V45.2086H63.1099V47.413H49ZM49 43.7914V41.587H63.1099V43.7914H49ZM61.4607 54C60.0297 54 58.7033 53.7726 57.4817 53.3177C56.2775 52.8453 55.2304 52.1805 54.3403 51.3232C53.4503 50.4659 52.7609 49.4599 52.2723 48.3052C51.7836 47.1506 51.5393 45.8821 51.5393 44.5C51.5393 43.1179 51.7836 41.8494 52.2723 40.6948C52.7609 39.5401 53.4503 38.5341 54.3403 37.6768C55.2304 36.8195 56.2775 36.1634 57.4817 35.7086C58.7033 35.2362 60.0297 35 61.4607 35C63.0489 35 64.4887 35.2799 65.7801 35.8398C67.0716 36.3821 68.1449 37.1869 69 38.2541L66.3037 40.7735C65.6754 40.0562 64.9773 39.5226 64.2094 39.1727C63.4415 38.8052 62.5951 38.6215 61.6702 38.6215C60.815 38.6215 60.0297 38.7615 59.3141 39.0414C58.5986 39.3214 57.9791 39.7238 57.4555 40.2486C56.9319 40.7735 56.5218 41.3946 56.2251 42.1119C55.9459 42.8292 55.8063 43.6252 55.8063 44.5C55.8063 45.3748 55.9459 46.1708 56.2251 46.8881C56.5218 47.6054 56.9319 48.2265 57.4555 48.7514C57.9791 49.2762 58.5986 49.6786 59.3141 49.9586C60.0297 50.2385 60.815 50.3785 61.6702 50.3785C62.5951 50.3785 63.4415 50.2035 64.2094 49.8536C64.9773 49.4862 65.6754 48.9351 66.3037 48.2003L69 50.7196C68.1449 51.7868 67.0716 52.6004 65.7801 53.1602C64.4887 53.7201 63.0489 54 61.4607 54Z" fill="#002429"/>
</svg>
