<svg width="115" height="94" viewBox="0 0 115 94" fill="none" xmlns="http://www.w3.org/2000/svg">
<rect opacity="0.9" width="115" height="89" rx="6.64" fill="#002429"/>
<rect opacity="0.9" width="115" height="94" rx="6.64" fill="#002429"/>
<g opacity="0.9">
<rect x="26" y="12" width="64" height="64" rx="6.64" fill="#002429"/>
</g>
<rect x="36.4341" y="21.374" width="44.2627" height="44.2627" rx="9.64543" fill="#FFCE00"/>
<rect opacity="0.2" x="102.293" y="21.7563" width="0.278926" height="44.0702" fill="white"/>
<path d="M57.5619 54V34H59.7955V54H57.5619ZM58.366 51.7021C57.1151 51.7021 55.9164 51.5461 54.7698 51.234C53.6231 50.9078 52.6999 50.4894 52 49.9787L53.2285 47.383C53.8986 47.8369 54.6879 48.2128 55.5962 48.5106C56.5195 48.7943 57.4502 48.9362 58.3883 48.9362C59.1031 48.9362 59.6764 48.8723 60.1082 48.7447C60.555 48.6028 60.8826 48.4113 61.0911 48.1702C61.2995 47.9291 61.4038 47.6525 61.4038 47.3404C61.4038 46.9433 61.24 46.6312 60.9124 46.4043C60.5848 46.1631 60.1529 45.9716 59.6168 45.8298C59.0808 45.6738 58.4851 45.5319 57.8299 45.4043C57.1896 45.2624 56.5418 45.0922 55.8866 44.8936C55.2463 44.695 54.6581 44.4397 54.122 44.1277C53.5859 43.8156 53.1466 43.4043 52.8041 42.8936C52.4765 42.383 52.3127 41.7305 52.3127 40.9362C52.3127 40.0851 52.551 39.3121 53.0275 38.617C53.5189 37.9078 54.2486 37.3475 55.2165 36.9362C56.1993 36.5106 57.4278 36.2979 58.9021 36.2979C59.8849 36.2979 60.8528 36.4113 61.8058 36.6383C62.7589 36.8511 63.6002 37.1773 64.3299 37.617L63.2131 40.234C62.4834 39.8369 61.7537 39.5461 61.0241 39.3617C60.2944 39.1631 59.5796 39.0638 58.8797 39.0638C58.1798 39.0638 57.6065 39.1418 57.1598 39.2979C56.7131 39.4539 56.3929 39.6596 56.1993 39.9149C56.0057 40.156 55.9089 40.4397 55.9089 40.766C55.9089 41.1489 56.0727 41.461 56.4003 41.7021C56.7279 41.9291 57.1598 42.1135 57.6959 42.2553C58.232 42.3972 58.8202 42.539 59.4605 42.6809C60.1157 42.8227 60.7635 42.9858 61.4038 43.1702C62.059 43.3546 62.6546 43.6028 63.1907 43.9149C63.7268 44.227 64.1586 44.6383 64.4863 45.1489C64.8288 45.6596 65 46.305 65 47.0851C65 47.922 64.7543 48.6879 64.2629 49.383C63.7715 50.078 63.0344 50.6383 62.0515 51.0638C61.0836 51.4894 59.8551 51.7021 58.366 51.7021Z" fill="#002429"/>
</svg>
