<svg width="120" height="134" viewBox="0 0 120 134" fill="none" xmlns="http://www.w3.org/2000/svg">
<path d="M23.2475 119.351C49.6651 119.351 67.8064 133.035 80.5359 133.035C93.2654 133.035 120 125.718 120 67.1573C120 8.59708 84.0343 0 70.033 0C4.46835 0 -23.5381 119.351 23.2475 119.351Z" fill="#EFEFEF"/>
<circle cx="109.516" cy="53.6254" r="5.29384" fill="#003B43"/>
<path d="M19.4519 92.6859C19.4519 95.6096 17.0818 97.9798 14.1581 97.9798C11.2344 97.9798 8.86426 95.6096 8.86426 92.6859C8.86426 89.7622 11.2344 87.3921 14.1581 87.3921C17.0818 87.3921 19.4519 89.7622 19.4519 92.6859ZM11.5782 92.6859C11.5782 94.1108 12.7333 95.2658 14.1581 95.2658C15.5829 95.2658 16.738 94.1108 16.738 92.6859C16.738 91.2611 15.5829 90.106 14.1581 90.106C12.7333 90.106 11.5782 91.2611 11.5782 92.6859Z" fill="#003B43"/>
<path d="M58.002 16.9565L63.4032 11.5553L66.1038 14.2559L60.7026 19.6571L58.002 16.9565Z" fill="#003B43"/>
<path d="M42.4727 32.4824L47.8766 27.0785L50.5772 29.7791L45.1733 35.183L42.4727 32.4824Z" fill="#003B43"/>
<path d="M42.4756 13.582L45.1762 10.8814L50.5801 16.2853L47.8795 18.9859L42.4756 13.582Z" fill="#003B43"/>
<g clip-path="url(#clip0_39_11951)">
<path d="M80.6791 85.1077C77.3787 87.0352 74.6345 89.7782 72.7061 93.1513L64.2881 76.9528L49.8625 91.2979L51.1233 100.565L47.2295 104.494L40.6657 92.6694L28.873 86.1456L32.8039 82.2164L42.0007 83.5138L56.4263 69.0574L28.873 54.6753L34.1019 49.4487L68.219 57.3071L82.6446 42.8878C84.7954 40.7008 88.3184 40.7008 90.5063 42.8878C92.6572 45.0748 92.6572 48.6703 90.5063 50.7461L76.0807 65.1654L80.6791 85.1077Z" fill="black"/>
</g>
<path d="M86.208 96.1171L100.029 82.4951L104.494 87.8453L86.208 105.869L75.6211 94.4855L80.0868 90.084L86.208 96.1171Z" fill="#003B43"/>
<defs>
<clipPath id="clip0_39_11951">
<rect width="64.6213" height="64.6213" fill="white" transform="translate(28.873 39.8726)"/>
</clipPath>
</defs>
</svg>
