<svg width="138" height="125" viewBox="0 0 138 125" fill="none" xmlns="http://www.w3.org/2000/svg">
<path d="M123.356 24.0277C123.356 51.3319 137.5 70.0821 137.5 83.2388C137.5 96.3955 129.937 124.027 69.4112 124.027C8.88561 124.027 0 86.8546 0 72.3834C0 4.61831 123.356 -24.328 123.356 24.0277Z" fill="#EFEFEF"/>
<path d="M28.6484 100.898L23.526 94.8905L26.5297 92.3293L31.6521 98.3367L28.6484 100.898Z" fill="#003B43"/>
<path d="M43.375 118.171L38.25 112.16L41.2537 109.599L46.3787 115.61L43.375 118.171Z" fill="#003B43"/>
<path d="M23.9023 116.617L21.3411 113.613L27.3515 108.489L29.9127 111.492L23.9023 116.617Z" fill="#003B43"/>
<path d="M101.073 58.918V39.0201C101.073 35.4378 98.1747 32.5069 94.5599 32.5069H80.9472C79.5795 28.7292 75.9972 25.9937 71.7636 25.9937C67.53 25.9937 63.9477 28.7292 62.58 32.5069H48.9673C45.3851 32.5069 42.4541 35.4378 42.4541 39.0201V84.6126C42.4541 88.2275 45.3851 91.1259 48.9673 91.1259H68.8652C72.9685 95.1641 78.5699 97.6391 84.79 97.6391C97.3931 97.6391 107.586 87.4459 107.586 74.8428C107.586 68.6227 105.111 63.0213 101.073 58.918ZM71.7636 32.5069C73.5547 32.5069 75.0202 33.9723 75.0202 35.7635C75.0202 37.5546 73.5547 39.0201 71.7636 39.0201C69.9725 39.0201 68.507 37.5546 68.507 35.7635C68.507 33.9723 69.9725 32.5069 71.7636 32.5069ZM48.9673 84.6126V39.0201H55.4805V45.5333H88.0466V39.0201H94.5599V54.261C91.5963 52.8607 88.3072 52.0465 84.79 52.0465H55.4805V58.5598H68.8326C66.8787 60.416 65.3806 62.6305 64.2083 65.073H55.4805V71.5862H62.2543C62.0915 72.6609 61.9938 73.7356 61.9938 74.8428C61.9938 78.3599 62.8079 81.6491 64.2083 84.6126H48.9673ZM84.79 91.1259C75.8018 91.1259 68.507 83.831 68.507 74.8428C68.507 65.8546 75.8018 58.5598 84.79 58.5598C93.7783 58.5598 101.073 65.8546 101.073 74.8428C101.073 83.831 93.7783 91.1259 84.79 91.1259ZM86.4183 75.657L95.7322 81.1606L93.2898 85.1337L81.5334 78.0994V61.8164H86.4183V75.657Z" fill="black"/>
<path d="M107.587 74.8427C107.587 87.4327 97.3804 97.6389 84.7904 97.6389C72.2004 97.6389 61.9941 87.4327 61.9941 74.8427C61.9941 62.2526 72.2004 52.0464 84.7904 52.0464C97.3804 52.0464 107.587 62.2526 107.587 74.8427ZM68.527 74.8427C68.527 83.8247 75.8084 91.1061 84.7904 91.1061C93.7725 91.1061 101.054 83.8247 101.054 74.8427C101.054 65.8606 93.7725 58.5792 84.7904 58.5792C75.8084 58.5792 68.527 65.8606 68.527 74.8427Z" fill="#003B43"/>
</svg>
