<svg width="82" height="106" viewBox="0 0 82 106" fill="none" xmlns="http://www.w3.org/2000/svg">
<path d="M61.6112 23.0077C45.0688 23.3545 33.5493 13.9603 25.5771 14.1297C17.6048 14.2991 -0.667659 29.1884 0.0188197 70.4083C0.705298 111.628 49.1519 112.488 49.1519 95.9239C90.2067 95.0608 90.9049 22.392 61.6112 23.0077Z" fill="#EFEFEF"/>
<path d="M15.1799 80.7259L10.953 73.5921C10.0197 72.017 10.2003 70.1828 11.3562 69.4979L6.64476 72.2895C5.48889 72.9744 5.30824 74.8086 6.24155 76.3838L10.4685 83.5175C11.4018 85.0926 13.0973 85.8152 14.2532 85.1303L18.9647 82.3386C17.8088 83.0235 16.1132 82.301 15.1799 80.7259Z" fill="#003B43"/>
<path d="M80.9698 46.605C80.9698 49.292 78.7915 51.4702 76.1045 51.4702C73.4175 51.4702 71.2393 49.292 71.2393 46.605C71.2393 43.918 73.4175 41.7397 76.1045 41.7397C78.7915 41.7397 80.9698 43.918 80.9698 46.605ZM73.2831 46.605C73.2831 48.1632 74.5463 49.4264 76.1045 49.4264C77.6627 49.4264 78.9259 48.1632 78.9259 46.605C78.9259 45.0468 77.6627 43.7836 76.1045 43.7836C74.5463 43.7836 73.2831 45.0468 73.2831 46.605Z" fill="#003B43"/>
<circle cx="37.5752" cy="4.86525" r="4.86525" fill="#003B43"/>
<path d="M26.8713 39.4307C24.6019 39.4307 22.7822 41.2707 22.7822 43.5197V72.1432C22.7822 73.2277 23.213 74.2677 23.9799 75.0346C24.7467 75.8014 25.7868 76.2322 26.8713 76.2322H55.4947C56.5792 76.2322 57.6193 75.8014 58.3861 75.0346C59.153 74.2677 59.5838 73.2277 59.5838 72.1432V67.4816C60.7901 66.7661 61.6283 65.478 61.6283 63.965V51.6979C61.6283 50.1849 60.7901 48.8968 59.5838 48.1813V43.5197C59.5838 42.4352 59.153 41.3952 58.3861 40.6283C57.6193 39.8615 56.5792 39.4307 55.4947 39.4307H26.8713ZM26.8713 43.5197H55.4947V47.6088H43.2275C42.1431 47.6088 41.103 48.0396 40.3361 48.8064C39.5693 49.5733 39.1385 50.6134 39.1385 51.6979V63.965C39.1385 65.0495 39.5693 66.0896 40.3361 66.8564C41.103 67.6233 42.1431 68.0541 43.2275 68.0541H55.4947V72.1432H26.8713V43.5197ZM43.2275 51.6979H57.5393V63.965H43.2275V51.6979ZM49.3611 54.7647C48.5478 54.7647 47.7677 55.0878 47.1926 55.6629C46.6174 56.238 46.2943 57.0181 46.2943 57.8314C46.2943 58.6448 46.6174 59.4249 47.1926 60C47.7677 60.5751 48.5478 60.8982 49.3611 60.8982C50.1745 60.8982 50.9545 60.5751 51.5297 60C52.1048 59.4249 52.4279 58.6448 52.4279 57.8314C52.4279 57.0181 52.1048 56.238 51.5297 55.6629C50.9545 55.0878 50.1745 54.7647 49.3611 54.7647Z" fill="black"/>
</svg>
