<svg width="126" height="114" viewBox="0 0 126 114" fill="none" xmlns="http://www.w3.org/2000/svg">
<path d="M113.039 22.0181C113.039 47.0387 126 64.2207 126 76.277C126 88.3333 119.069 113.654 63.6059 113.654C8.14245 113.654 0 79.5904 0 66.3295C0 4.23205 113.039 -22.2933 113.039 22.0181Z" fill="#EFEFEF"/>
<path d="M99.2286 14.9924C96.2371 14.9924 93.8027 12.558 93.8027 9.56651C93.8027 6.57504 96.2371 4.14062 99.2286 4.14062C102.22 4.14062 104.655 6.57504 104.655 9.56651C104.655 12.558 102.22 14.9924 99.2286 14.9924ZM99.2286 7.75788C98.2339 7.75788 97.42 8.56815 97.42 9.56651C97.42 10.5649 98.2339 11.3751 99.2286 11.3751C100.223 11.3751 101.037 10.5649 101.037 9.56651C101.037 8.56815 100.223 7.75788 99.2286 7.75788Z" fill="#B6A4C1"/>
<path d="M110.081 82.8425C107.09 82.8425 104.655 80.4081 104.655 77.4166C104.655 74.4251 107.09 71.9907 110.081 71.9907C113.073 71.9907 115.507 74.4251 115.507 77.4166C115.507 80.4081 113.073 82.8425 110.081 82.8425ZM110.081 75.608C109.086 75.608 108.273 76.4182 108.273 77.4166C108.273 78.415 109.086 79.2252 110.081 79.2252C111.076 79.2252 111.89 78.415 111.89 77.4166C111.89 76.4182 111.076 75.608 110.081 75.608Z" fill="#B6A4C1"/>
<path d="M100.597 68.4438C100.597 82.3678 89.3351 93.6293 75.4111 93.6293L79.1889 87.3329" stroke="#003B43" stroke-width="4.14439" stroke-linecap="round" stroke-linejoin="round"/>
<path d="M28.6387 46.8563C28.6387 32.9324 39.9002 21.6709 53.8241 21.6709L50.0463 27.9673" stroke="#003B43" stroke-width="4.14439" stroke-linecap="round" stroke-linejoin="round"/>
<path d="M70.7344 30.4849L85.0537 38.76L99.2295 30.5209" stroke="black" stroke-width="4.14439" stroke-linecap="round" stroke-linejoin="round"/>
<path d="M85.0537 53.4051V38.7256" stroke="black" stroke-width="4.14439" stroke-linecap="round" stroke-linejoin="round"/>
<path d="M81.6725 22.4265L73.0375 27.2115C71.0946 28.2909 69.4756 31.0253 69.4756 33.256V42.3949C69.4756 44.6256 71.0587 47.36 73.0375 48.4393L81.6725 53.2247C83.5075 54.268 86.5297 54.268 88.4006 53.2247L97.0356 48.4393C98.9785 47.36 100.598 44.6256 100.598 42.3949V33.256C100.598 31.0253 99.0145 28.2909 97.0356 27.2115L88.4006 22.4265C86.5657 21.419 83.5434 21.419 81.6725 22.4265V22.4265Z" stroke="black" stroke-width="4.14439" stroke-linecap="round" stroke-linejoin="round"/>
<path d="M29.8975 70.0625L44.1812 78.3374L58.3931 70.0985" stroke="black" stroke-width="4.14439" stroke-linecap="round" stroke-linejoin="round"/>
<path d="M44.1807 92.9813V78.3018" stroke="black" stroke-width="4.14439" stroke-linecap="round" stroke-linejoin="round"/>
<path d="M40.8356 62.0041L32.2006 66.7893C30.2578 67.8687 28.6387 70.6028 28.6387 72.8335V81.9726C28.6387 84.2033 30.2218 86.9377 32.2006 88.0171L40.8356 92.8023C42.6706 93.8457 45.6928 93.8457 47.5637 92.8023L56.1987 88.0171C58.1416 86.9377 59.7607 84.2033 59.7607 81.9726V72.8335C59.7607 70.6028 58.1776 67.8687 56.1987 66.7893L47.5637 62.0041C45.6928 60.9967 42.6706 60.9967 40.8356 62.0041V62.0041Z" stroke="black" stroke-width="4.14439" stroke-linecap="round" stroke-linejoin="round"/>
</svg>
