<svg width="120" height="156" viewBox="0 0 120 156" fill="none" xmlns="http://www.w3.org/2000/svg">
<path d="M90.1693 33.6722C65.9591 34.1798 49.1001 20.4312 37.4326 20.6791C25.765 20.927 -0.977133 42.7178 0.027543 103.044C1.03222 163.37 71.9348 164.628 71.9349 140.387C132.019 139.123 133.041 32.7711 90.1693 33.6722Z" fill="#EFEFEF"/>
<path d="M22.2161 118.144L16.0299 107.704C14.664 105.399 14.9284 102.714 16.6201 101.712L9.72474 105.797C8.03309 106.8 7.76872 109.484 9.13463 111.789L15.3208 122.23C16.6867 124.535 19.1682 125.592 20.8599 124.59L27.7552 120.504C26.0635 121.507 23.582 120.449 22.2161 118.144Z" fill="#003B43"/>
<path d="M118.502 68.2073C118.502 72.1398 115.314 75.3277 111.381 75.3277C107.449 75.3277 104.261 72.1398 104.261 68.2073C104.261 64.2748 107.449 61.0869 111.381 61.0869C115.314 61.0869 118.502 64.2748 118.502 68.2073ZM107.252 68.2073C107.252 70.4878 109.101 72.3365 111.381 72.3365C113.662 72.3365 115.51 70.4878 115.51 68.2073C115.51 65.9268 113.662 64.0781 111.381 64.0781C109.101 64.0781 107.252 65.9268 107.252 68.2073Z" fill="#003B43"/>
<circle cx="54.9915" cy="7.12039" r="7.12039" fill="#003B43"/>
<path d="M83.1409 70.2101H36.1204V64.3325H83.1409V70.2101ZM70.4748 93.7203H65.5083V98.6869C63.6568 101.479 62.5695 104.8 62.5695 108.414C62.5695 109.413 62.687 110.383 62.834 111.353H36.1204V93.7203H33.1816V87.8428L36.1204 73.1489H83.1409L86.0797 87.8428V91.8101C84.2283 91.1636 82.2593 90.7816 80.2022 90.7816C76.5875 90.7816 73.2666 91.8689 70.4748 93.7203ZM59.6307 93.7203H41.998V105.475H59.6307V93.7203ZM80.0846 87.8428L78.3213 79.0264H40.94L39.1768 87.8428H80.0846Z" fill="black"/>
<path d="M83.1412 96.6592V105.476H91.9575V111.353H83.1412V120.169H77.2636V111.353H68.4473V105.476H77.2636V96.6592H83.1412Z" fill="#003B43"/>
</svg>
