<svg width="128" height="116" viewBox="0 0 128 116" fill="none" xmlns="http://www.w3.org/2000/svg">
<path d="M114.834 22.3676C114.834 47.7853 128 65.2401 128 77.4878C128 89.7355 120.959 115.458 64.6155 115.458C8.27169 115.458 0 80.8538 0 67.3824C0 4.29922 114.834 -22.6472 114.834 22.3676Z" fill="#EFEFEF"/>
<path d="M26.6699 93.9272L21.9014 88.3349L24.6976 85.9507L29.4661 91.543L26.6699 93.9272Z" fill="#003B43"/>
<path d="M40.3789 110.007L35.608 104.412L38.4042 102.027L43.1751 107.623L40.3789 110.007Z" fill="#003B43"/>
<path d="M22.251 108.561L19.8667 105.764L25.4619 100.993L27.8461 103.79L22.251 108.561Z" fill="#003B43"/>
<path d="M70.7916 49.1673C69.5128 49.9665 68.298 50.9256 67.1471 52.0446C66.0921 53.1315 65.133 54.3144 64.3657 55.5612H54.6789V50.7658C54.6789 49.8706 55.3822 49.1673 56.2774 49.1673H70.7916ZM93.0425 42.7734H35.4971V23.5916H93.0425V42.7734ZM86.6486 29.9855H41.891V36.3794H86.6486V29.9855ZM45.088 74.743V45.9703H38.694V81.137H66.8913C65.0371 79.2188 63.6304 77.0449 62.6713 74.743H45.088Z" fill="black"/>
<path d="M99.4365 85.5807L103.88 81.1369L94.0336 71.2263C95.4403 69.0204 96.2395 66.3669 96.2395 63.5536C96.2395 55.5612 89.8456 49.1672 81.8532 49.1672C73.8607 49.1672 67.4668 55.5612 67.4668 63.5536C67.4668 71.546 73.8607 77.94 81.8532 77.94C84.6345 77.94 87.256 77.1407 89.4619 75.766L99.4365 85.5807Z" fill="#003B43"/>
<circle cx="82.0184" cy="63.4983" r="7.9373" fill="#D9D9D9"/>
</svg>
