<svg width="123" height="123" viewBox="0 0 123 123" fill="none" xmlns="http://www.w3.org/2000/svg">
<path d="M92.1901 13.373C68.5605 13.8137 52.1058 1.87588 40.718 2.09113C29.3303 2.30638 5.54004 9.29688 6.52062 61.6778C7.5012 114.059 39.8126 121.141 52.3381 120.909C110.982 119.812 134.034 12.5905 92.1901 13.373Z" fill="#EFEFEF"/>
<path d="M22.5723 11.6476L27.4042 6.81569L29.8201 9.23164L24.9882 14.0635L22.5723 11.6476Z" fill="#B6A4C1"/>
<path d="M8.67676 25.5377L13.5111 20.7034L15.927 23.1194L11.0927 27.9537L8.67676 25.5377Z" fill="#B6A4C1"/>
<path d="M8.68164 8.62927L11.0976 6.21332L15.9319 11.0476L13.516 13.4636L8.68164 8.62927Z" fill="#B6A4C1"/>
<path d="M113.532 52.7639C110.707 52.7639 108.407 50.4645 108.407 47.6389C108.407 44.8133 110.707 42.5139 113.532 42.5139C116.358 42.5139 118.657 44.8133 118.657 47.6389C118.657 50.4645 116.358 52.7639 113.532 52.7639ZM113.532 45.9306C112.593 45.9306 111.824 46.6959 111.824 47.6389C111.824 48.5819 112.593 49.3472 113.532 49.3472C114.472 49.3472 115.241 48.5819 115.241 47.6389C115.241 46.6959 114.472 45.9306 113.532 45.9306Z" fill="#B6A4C1"/>
<path d="M96.5208 38.4375H26.4792C24.5932 38.4375 23.0625 36.9068 23.0625 35.0208V26.4792C23.0625 24.5932 24.5932 23.0625 26.4792 23.0625H96.5208C98.4068 23.0625 99.9375 24.5932 99.9375 26.4792V35.0208C99.9375 36.9068 98.4068 38.4375 96.5208 38.4375Z" fill="#003B43"/>
<path d="M92.25 69.1875C88.0031 69.1875 84.5625 65.7469 84.5625 61.5C84.5625 57.2531 88.0031 53.8125 92.25 53.8125C96.4969 53.8125 99.9375 57.2531 99.9375 61.5C99.9375 65.7469 96.4969 69.1875 92.25 69.1875Z" fill="#003B43"/>
<path d="M92.25 99.9375C88.0031 99.9375 84.5625 96.4969 84.5625 92.25C84.5625 88.0031 88.0031 84.5625 92.25 84.5625C96.4969 84.5625 99.9375 88.0031 99.9375 92.25C99.9375 96.4969 96.4969 99.9375 92.25 99.9375Z" fill="#003B43"/>
<path d="M30.75 35.0208V26.4792C30.75 24.5932 32.2807 23.0625 34.1667 23.0625H26.4792C24.5932 23.0625 23.0625 24.5932 23.0625 26.4792V35.0208C23.0625 36.9068 24.5932 38.4375 26.4792 38.4375H34.1667C32.2807 38.4375 30.75 36.9068 30.75 35.0208Z" fill="#D5DBE1"/>
<path d="M92.25 61.5C92.25 58.6608 93.8046 56.211 96.0938 54.8785C94.9594 54.2191 93.6577 53.8125 92.25 53.8125C88.0031 53.8125 84.5625 57.2531 84.5625 61.5C84.5625 65.7469 88.0031 69.1875 92.25 69.1875C93.6577 69.1875 94.9594 68.7809 96.0938 68.1215C93.8046 66.789 92.25 64.3393 92.25 61.5Z" fill="#003B43"/>
<path d="M92.25 92.25C92.25 89.4108 93.8046 86.961 96.0938 85.6285C94.9594 84.9691 93.6577 84.5625 92.25 84.5625C88.0031 84.5625 84.5625 88.0031 84.5625 92.25C84.5625 96.4969 88.0031 99.9375 92.25 99.9375C93.6577 99.9375 94.9594 99.5309 96.0938 98.8715C93.8046 97.539 92.25 95.0893 92.25 92.25Z" fill="#003B43"/>
<path d="M96.5228 40.9998H26.4811C23.184 40.9998 20.502 38.3177 20.502 35.0206V26.4789C20.502 23.1818 23.184 20.4998 26.4811 20.4998H96.5228C99.8199 20.4998 102.502 23.1818 102.502 26.4789V35.0206C102.502 38.3177 99.8199 40.9998 96.5228 40.9998ZM26.4811 25.6248C26.0096 25.6248 25.627 26.0074 25.627 26.4789V35.0206C25.627 35.4921 26.0096 35.8748 26.4811 35.8748H96.5228C96.9943 35.8748 97.3769 35.4921 97.3769 35.0206V26.4789C97.3769 26.0074 96.9943 25.6248 96.5228 25.6248H26.4811Z" fill="black"/>
<path d="M23.0625 54.6665H72.6042V59.7915H23.0625V54.6665Z" fill="black"/>
<path d="M23.0625 64.9161H72.6042V70.0411H23.0625V64.9161Z" fill="black"/>
<path d="M23.0625 85.4165H72.6042V90.5415H23.0625V85.4165Z" fill="black"/>
<path d="M23.0625 95.6664H72.6042V100.791H23.0625V95.6664Z" fill="black"/>
<path d="M92.252 71.7498C86.6008 71.7498 82.002 67.1509 82.002 61.4998C82.002 55.8486 86.6008 51.2498 92.252 51.2498C97.9031 51.2498 102.502 55.8486 102.502 61.4998C102.502 67.1509 97.9031 71.7498 92.252 71.7498ZM92.252 56.3748C89.4264 56.3748 87.127 58.6742 87.127 61.4998C87.127 64.3253 89.4264 66.6248 92.252 66.6248C95.0775 66.6248 97.377 64.3253 97.377 61.4998C97.377 58.6742 95.0775 56.3748 92.252 56.3748Z" fill="black"/>
<path d="M92.252 102.5C86.6008 102.5 82.002 97.9009 82.002 92.2497C82.002 86.5986 86.6008 81.9998 92.252 81.9998C97.9031 81.9998 102.502 86.5986 102.502 92.2497C102.502 97.9009 97.9031 102.5 92.252 102.5ZM92.252 87.1248C89.4264 87.1248 87.127 89.4242 87.127 92.2497C87.127 95.0753 89.4264 97.3747 92.252 97.3747C95.0775 97.3747 97.377 95.0753 97.377 92.2497C97.377 89.4242 95.0775 87.1248 92.252 87.1248Z" fill="black"/>
</svg>
