<svg width="446" height="379" viewBox="0 0 446 379" fill="none" xmlns="http://www.w3.org/2000/svg">
<g opacity="0.3">
<path d="M384.171 17.6874C384.171 26.1814 391.057 33.0672 399.551 33.0672C408.045 33.0672 414.931 26.1814 414.931 17.6874C414.931 9.19338 408.045 2.30762 399.551 2.30762C391.057 2.30762 384.171 9.19338 384.171 17.6874Z" fill="#DECAAF"/>
<rect width="109.196" height="39.2184" rx="5.80298" transform="matrix(-1 0 0 1 375.712 0)" fill="#DECAAF"/>
<rect width="144.57" height="41.5254" rx="5.80298" transform="matrix(-1 0 0 1 375.712 47.6777)" fill="#DECAAF"/>
<path d="M361.103 13.8428H284.973M361.103 26.1466H317.211" stroke="#F5F5F5" stroke-width="7.7373" stroke-linecap="round"/>
<path d="M361.103 62.2891H251.906M361.103 74.5929H278.052" stroke="#F5F5F5" stroke-width="7.7373" stroke-linecap="round"/>
</g>
<g filter="url(#filter0_d_39_12080)">
<rect x="27" y="35.1748" width="319.087" height="174.619" rx="9.45938" fill="#003B43" fill-opacity="0.8" shape-rendering="crispEdges"/>
</g>
<g filter="url(#filter1_d_39_12080)">
<circle cx="95.1514" cy="38.6299" r="26.6953" fill="#FCFCFC"/>
</g>
<rect x="169.456" y="153.135" width="114.575" height="160.428" rx="8.95938" stroke="#FFD392" stroke-dasharray="4 4"/>
<rect x="95.9658" y="153.135" width="188.066" height="119.6" rx="8.95938" stroke="#FFD392" stroke-dasharray="4 4"/>
<rect x="304.503" y="20.5996" width="76.2594" height="61.1844" rx="8.95938" stroke="white" stroke-dasharray="4 4"/>
<path d="M70.3408 103.641H295.838M70.3408 117.834H295.838M70.3408 132.534H211.064" stroke="#8CB3FF" stroke-width="9" stroke-linecap="round"/>
<path d="M85.5107 85H80.9883V77.1475H85.5107V78.5117H82.6533V80.2358H85.312V81.6001H82.6533V83.625H85.5107V85ZM89.4854 78.8716C90.291 78.8716 90.9087 79.047 91.3384 79.3979C91.7681 79.7489 91.9829 80.2824 91.9829 80.9985V85H90.8389L90.522 84.1836H90.479C90.3071 84.3984 90.1317 84.5739 89.9526 84.71C89.7736 84.846 89.5677 84.9463 89.335 85.0107C89.1022 85.0752 88.8193 85.1074 88.4863 85.1074C88.1318 85.1074 87.8132 85.0394 87.5303 84.9033C87.251 84.7673 87.0308 84.5596 86.8696 84.2803C86.7085 83.9974 86.6279 83.6393 86.6279 83.2061C86.6279 82.5687 86.8517 82.0996 87.2993 81.7988C87.7469 81.4945 88.4183 81.3262 89.3135 81.2939L90.3555 81.2617V80.9985C90.3555 80.6834 90.2731 80.4525 90.1084 80.3057C89.9437 80.1589 89.7145 80.0854 89.4209 80.0854C89.1309 80.0854 88.8462 80.1266 88.5669 80.209C88.2876 80.2913 88.0083 80.3952 87.729 80.5205L87.1865 79.4141C87.5052 79.2458 87.8615 79.1133 88.2554 79.0166C88.6528 78.9199 89.0628 78.8716 89.4854 78.8716ZM90.3555 82.2178L89.7217 82.2393C89.1917 82.2536 88.8229 82.3485 88.6152 82.5239C88.4111 82.6994 88.3091 82.9303 88.3091 83.2168C88.3091 83.4674 88.3825 83.6465 88.5293 83.7539C88.6761 83.8577 88.8677 83.9097 89.104 83.9097C89.4549 83.9097 89.7503 83.8058 89.9902 83.5981C90.2337 83.3905 90.3555 83.0951 90.3555 82.7119V82.2178ZM97.8643 83.2168C97.8643 83.625 97.7676 83.9705 97.5742 84.2534C97.3844 84.5327 97.0998 84.7458 96.7202 84.8926C96.3407 85.0358 95.868 85.1074 95.3022 85.1074C94.8833 85.1074 94.5234 85.0806 94.2227 85.0269C93.9255 84.9731 93.6247 84.8836 93.3203 84.7583V83.4048C93.6462 83.5516 93.9953 83.6733 94.3677 83.77C94.7437 83.8631 95.0731 83.9097 95.356 83.9097C95.6746 83.9097 95.902 83.8631 96.0381 83.77C96.1777 83.6733 96.2476 83.548 96.2476 83.394C96.2476 83.2938 96.2189 83.2043 96.1616 83.1255C96.1079 83.0431 95.9897 82.9518 95.8071 82.8516C95.6245 82.7477 95.3381 82.6134 94.9478 82.4487C94.5718 82.2912 94.262 82.1318 94.0186 81.9707C93.7786 81.8096 93.5996 81.6198 93.4814 81.4014C93.3669 81.1794 93.3096 80.8983 93.3096 80.5581C93.3096 80.0031 93.5244 79.5859 93.9541 79.3066C94.3874 79.0238 94.9657 78.8823 95.689 78.8823C96.0614 78.8823 96.4159 78.9199 96.7524 78.9951C97.0926 79.0703 97.4417 79.1903 97.7998 79.355L97.3057 80.5366C97.0085 80.4077 96.7274 80.3021 96.4624 80.2197C96.201 80.1374 95.9342 80.0962 95.6621 80.0962C95.4222 80.0962 95.2414 80.1284 95.1196 80.1929C94.9979 80.2573 94.937 80.3558 94.937 80.4883C94.937 80.585 94.9674 80.6709 95.0283 80.7461C95.0928 80.8213 95.2145 80.9054 95.3936 80.9985C95.5762 81.0881 95.8429 81.2044 96.1938 81.3477C96.534 81.4873 96.8294 81.6341 97.0801 81.7881C97.3307 81.9385 97.5241 82.1265 97.6602 82.3521C97.7962 82.5741 97.8643 82.8623 97.8643 83.2168ZM98.2832 78.9951H100.077L101.21 82.3735C101.246 82.481 101.277 82.5902 101.302 82.7012C101.327 82.8122 101.348 82.9268 101.366 83.0449C101.384 83.1631 101.398 83.2866 101.409 83.4155H101.441C101.463 83.2222 101.492 83.0413 101.527 82.873C101.567 82.7048 101.615 82.5382 101.672 82.3735L102.784 78.9951H104.541L102 85.7681C101.846 86.1834 101.646 86.529 101.398 86.8047C101.151 87.084 100.867 87.2935 100.544 87.4331C100.226 87.5728 99.8748 87.6426 99.4917 87.6426C99.3055 87.6426 99.1444 87.6318 99.0083 87.6104C98.8722 87.5924 98.7559 87.5728 98.6592 87.5513V86.2515C98.7344 86.2694 98.8293 86.2855 98.9438 86.2998C99.0584 86.3141 99.1784 86.3213 99.3037 86.3213C99.5329 86.3213 99.7298 86.2729 99.8945 86.1763C100.059 86.0796 100.197 85.9489 100.308 85.7842C100.419 85.623 100.507 85.4458 100.571 85.2524L100.668 84.957L98.2832 78.9951ZM110.792 83.8022C110.972 83.8022 111.145 83.7843 111.313 83.7485C111.485 83.7127 111.655 83.668 111.824 83.6143V84.8335C111.648 84.9123 111.43 84.9767 111.168 85.0269C110.911 85.0806 110.628 85.1074 110.32 85.1074C109.962 85.1074 109.639 85.0501 109.353 84.9355C109.07 84.8174 108.846 84.6151 108.682 84.3286C108.521 84.0386 108.44 83.6357 108.44 83.1201V80.2251H107.656V79.5322L108.558 78.9844L109.031 77.7168H110.078V78.9951H111.759V80.2251H110.078V83.1201C110.078 83.3493 110.143 83.5212 110.271 83.6357C110.404 83.7467 110.578 83.8022 110.792 83.8022ZM118.5 81.9868C118.5 82.4881 118.432 82.9321 118.296 83.3188C118.163 83.7056 117.968 84.0332 117.71 84.3018C117.456 84.5667 117.148 84.7673 116.787 84.9033C116.429 85.0394 116.024 85.1074 115.573 85.1074C115.15 85.1074 114.762 85.0394 114.407 84.9033C114.056 84.7673 113.75 84.5667 113.489 84.3018C113.231 84.0332 113.03 83.7056 112.887 83.3188C112.748 82.9321 112.678 82.4881 112.678 81.9868C112.678 81.3208 112.796 80.7568 113.032 80.2949C113.269 79.833 113.605 79.4821 114.042 79.2422C114.479 79.0023 115 78.8823 115.605 78.8823C116.167 78.8823 116.665 79.0023 117.098 79.2422C117.535 79.4821 117.877 79.833 118.124 80.2949C118.375 80.7568 118.5 81.3208 118.5 81.9868ZM114.348 81.9868C114.348 82.3807 114.391 82.7119 114.477 82.9805C114.563 83.249 114.697 83.4513 114.88 83.5874C115.062 83.7235 115.301 83.7915 115.594 83.7915C115.884 83.7915 116.119 83.7235 116.298 83.5874C116.48 83.4513 116.613 83.249 116.695 82.9805C116.781 82.7119 116.824 82.3807 116.824 81.9868C116.824 81.5894 116.781 81.2599 116.695 80.9985C116.613 80.7336 116.48 80.5348 116.298 80.4023C116.115 80.2699 115.877 80.2036 115.583 80.2036C115.15 80.2036 114.835 80.3522 114.638 80.6494C114.445 80.9466 114.348 81.3924 114.348 81.9868ZM128.222 78.9951V85H126.965L126.745 84.2319H126.659C126.53 84.436 126.369 84.6025 126.175 84.7314C125.982 84.8604 125.769 84.9552 125.536 85.0161C125.303 85.077 125.062 85.1074 124.811 85.1074C124.381 85.1074 124.007 85.0322 123.688 84.8818C123.37 84.7279 123.121 84.4897 122.942 84.1675C122.766 83.8452 122.679 83.4263 122.679 82.9106V78.9951H124.317V82.5024C124.317 82.9321 124.394 83.2562 124.548 83.4746C124.702 83.693 124.947 83.8022 125.284 83.8022C125.617 83.8022 125.878 83.7271 126.068 83.5767C126.258 83.4227 126.39 83.1989 126.465 82.9053C126.544 82.6081 126.583 82.2464 126.583 81.8203V78.9951H128.222ZM134.13 83.2168C134.13 83.625 134.033 83.9705 133.84 84.2534C133.65 84.5327 133.365 84.7458 132.986 84.8926C132.606 85.0358 132.134 85.1074 131.568 85.1074C131.149 85.1074 130.789 85.0806 130.488 85.0269C130.191 84.9731 129.89 84.8836 129.586 84.7583V83.4048C129.912 83.5516 130.261 83.6733 130.633 83.77C131.009 83.8631 131.339 83.9097 131.622 83.9097C131.94 83.9097 132.168 83.8631 132.304 83.77C132.443 83.6733 132.513 83.548 132.513 83.394C132.513 83.2938 132.485 83.2043 132.427 83.1255C132.374 83.0431 132.255 82.9518 132.073 82.8516C131.89 82.7477 131.604 82.6134 131.213 82.4487C130.837 82.2912 130.528 82.1318 130.284 81.9707C130.044 81.8096 129.865 81.6198 129.747 81.4014C129.632 81.1794 129.575 80.8983 129.575 80.5581C129.575 80.0031 129.79 79.5859 130.22 79.3066C130.653 79.0238 131.231 78.8823 131.955 78.8823C132.327 78.8823 132.681 78.9199 133.018 78.9951C133.358 79.0703 133.707 79.1903 134.065 79.355L133.571 80.5366C133.274 80.4077 132.993 80.3021 132.728 80.2197C132.467 80.1374 132.2 80.0962 131.928 80.0962C131.688 80.0962 131.507 80.1284 131.385 80.1929C131.264 80.2573 131.203 80.3558 131.203 80.4883C131.203 80.585 131.233 80.6709 131.294 80.7461C131.358 80.8213 131.48 80.9054 131.659 80.9985C131.842 81.0881 132.109 81.2044 132.459 81.3477C132.8 81.4873 133.095 81.6341 133.346 81.7881C133.596 81.9385 133.79 82.1265 133.926 82.3521C134.062 82.5741 134.13 82.8623 134.13 83.2168ZM137.884 78.8823C138.439 78.8823 138.917 78.9897 139.318 79.2046C139.719 79.4159 140.029 79.7238 140.248 80.1284C140.466 80.533 140.575 81.0272 140.575 81.6108V82.4058H136.703C136.721 82.8677 136.858 83.2311 137.116 83.4961C137.378 83.7575 137.739 83.8882 138.201 83.8882C138.584 83.8882 138.935 83.8488 139.254 83.77C139.573 83.6912 139.9 83.5731 140.237 83.4155V84.6831C139.94 84.8299 139.628 84.9373 139.302 85.0054C138.98 85.0734 138.588 85.1074 138.126 85.1074C137.524 85.1074 136.991 84.9964 136.525 84.7744C136.063 84.5524 135.7 84.214 135.435 83.7593C135.174 83.3045 135.043 82.7316 135.043 82.0405C135.043 81.3387 135.161 80.755 135.397 80.2896C135.637 79.8205 135.97 79.4696 136.396 79.2368C136.823 79.0005 137.319 78.8823 137.884 78.8823ZM137.895 80.0479C137.576 80.0479 137.311 80.1499 137.1 80.354C136.892 80.5581 136.772 80.8786 136.74 81.3154H139.039C139.035 81.0719 138.991 80.8553 138.905 80.6655C138.822 80.4757 138.697 80.3254 138.529 80.2144C138.364 80.1034 138.153 80.0479 137.895 80.0479Z" fill="white"/>
<g filter="url(#filter2_d_39_12080)">
<rect x="67.2002" y="150.75" width="65.9531" height="69.0938" rx="9.45938" fill="white"/>
</g>
<path d="M98.5526 195.346H85.5361V192.157L89.9158 187.728C90.8237 186.779 91.527 186.019 92.0259 185.446C92.533 184.874 92.8888 184.387 93.0933 183.986C93.2977 183.585 93.4 183.168 93.4 182.735C93.4 182.203 93.2282 181.819 92.8847 181.582C92.5412 181.344 92.1364 181.226 91.6702 181.226C91.1058 181.226 90.5333 181.389 89.9526 181.717C89.3801 182.036 88.7299 182.51 88.002 183.14L85.3398 180.024C85.8796 179.541 86.4521 179.083 87.0574 178.65C87.6626 178.208 88.3782 177.848 89.2043 177.57C90.0303 177.292 91.0363 177.153 92.2222 177.153C93.4409 177.153 94.4959 177.365 95.3874 177.791C96.287 178.216 96.9822 178.801 97.473 179.545C97.9637 180.281 98.209 181.12 98.209 182.06C98.209 183.099 98.0168 184.027 97.6324 184.845C97.2562 185.655 96.6878 186.468 95.9272 187.286C95.1666 188.096 94.2178 189.016 93.081 190.047L91.7683 191.224V191.347H98.5526V195.346Z" fill="#333131" fill-opacity="0.8"/>
<path d="M113.348 186.403C113.348 187.842 113.233 189.131 113.004 190.267C112.775 191.396 112.407 192.357 111.9 193.15C111.401 193.944 110.739 194.549 109.913 194.966C109.087 195.383 108.073 195.592 106.87 195.592C105.374 195.592 104.147 195.228 103.19 194.5C102.233 193.764 101.526 192.713 101.068 191.347C100.618 189.973 100.393 188.325 100.393 186.403C100.393 184.465 100.597 182.808 101.006 181.434C101.423 180.052 102.106 178.993 103.055 178.257C104.004 177.521 105.275 177.153 106.87 177.153C108.367 177.153 109.59 177.521 110.538 178.257C111.495 178.985 112.203 180.04 112.661 181.422C113.119 182.796 113.348 184.456 113.348 186.403ZM105.214 186.403C105.214 187.573 105.255 188.554 105.337 189.347C105.427 190.141 105.59 190.738 105.828 191.138C106.073 191.531 106.42 191.727 106.87 191.727C107.32 191.727 107.664 191.531 107.901 191.138C108.138 190.738 108.302 190.145 108.392 189.36C108.482 188.566 108.526 187.581 108.526 186.403C108.526 185.217 108.482 184.227 108.392 183.434C108.302 182.641 108.138 182.044 107.901 181.643C107.664 181.234 107.32 181.03 106.87 181.03C106.42 181.03 106.073 181.234 105.828 181.643C105.59 182.044 105.427 182.641 105.337 183.434C105.255 184.227 105.214 185.217 105.214 186.403Z" fill="#333131" fill-opacity="0.8"/>
<path d="M91.8399 170.449C91.6559 170.449 91.4949 170.439 91.3569 170.417C91.2158 170.399 91.0962 170.376 90.998 170.348V169.161C91.0962 169.183 91.202 169.203 91.3155 169.221C91.4259 169.243 91.544 169.253 91.6697 169.253C91.8353 169.253 91.9841 169.221 92.116 169.157C92.2479 169.095 92.3521 168.977 92.4288 168.802C92.5055 168.628 92.5438 168.376 92.5438 168.048V161.745H93.97V168.039C93.97 168.615 93.8795 169.08 93.6986 169.433C93.5207 169.788 93.2707 170.046 92.9487 170.206C92.6297 170.368 92.2601 170.449 91.8399 170.449Z" fill="#333131" fill-opacity="0.8"/>
<path d="M100.273 163.328V168.471H99.1962L99.0076 167.813H98.934C98.8235 167.988 98.6855 168.131 98.5199 168.241C98.3543 168.352 98.1718 168.433 97.9724 168.485C97.7731 168.537 97.5661 168.563 97.3514 168.563C96.9833 168.563 96.6628 168.499 96.3899 168.37C96.1169 168.238 95.9037 168.034 95.7504 167.758C95.6001 167.482 95.525 167.123 95.525 166.682V163.328H96.9281V166.332C96.9281 166.7 96.9941 166.978 97.1259 167.165C97.2578 167.352 97.4679 167.445 97.7562 167.445C98.0415 167.445 98.2653 167.381 98.4279 167.252C98.5904 167.12 98.7039 166.928 98.7683 166.677C98.8358 166.422 98.8695 166.113 98.8695 165.748V163.328H100.273Z" fill="#333131" fill-opacity="0.8"/>
<path d="M103.148 168.471H101.745V161.313H103.148V168.471Z" fill="#333131" fill-opacity="0.8"/>
<path d="M103.889 163.328H105.425L106.396 166.222C106.427 166.314 106.453 166.407 106.474 166.502C106.496 166.597 106.514 166.695 106.529 166.797C106.545 166.898 106.557 167.004 106.566 167.114H106.594C106.612 166.948 106.637 166.794 106.667 166.649C106.701 166.505 106.743 166.363 106.792 166.222L107.744 163.328H109.248L107.072 169.129C106.94 169.485 106.769 169.781 106.557 170.017C106.345 170.256 106.102 170.436 105.826 170.555C105.553 170.675 105.252 170.735 104.924 170.735C104.764 170.735 104.626 170.725 104.51 170.707C104.393 170.692 104.294 170.675 104.211 170.656V169.543C104.275 169.558 104.356 169.572 104.455 169.584C104.553 169.597 104.655 169.603 104.763 169.603C104.959 169.603 105.128 169.561 105.269 169.479C105.41 169.396 105.528 169.284 105.623 169.143C105.718 169.005 105.793 168.853 105.849 168.687L105.931 168.434L103.889 163.328Z" fill="#333131" fill-opacity="0.8"/>
<path d="M79.1348 205.397H119.963" stroke="#E9E9E9" stroke-width="5" stroke-linecap="round"/>
<rect x="143.203" y="176.502" width="65.9531" height="69.0938" rx="9.45938" fill="#F2F2F2"/>
<path d="M175.039 222.983H163.286V221.278L168.083 216.407C168.974 215.508 169.723 214.706 170.328 214.003C170.941 213.299 171.408 212.608 171.727 211.93C172.046 211.243 172.205 210.49 172.205 209.672C172.205 208.658 171.902 207.885 171.297 207.354C170.7 206.814 169.911 206.544 168.929 206.544C168.071 206.544 167.31 206.691 166.648 206.986C165.985 207.28 165.306 207.697 164.611 208.237L163.519 206.863C163.994 206.462 164.509 206.106 165.065 205.796C165.629 205.485 166.23 205.239 166.868 205.059C167.515 204.88 168.202 204.79 168.929 204.79C170.034 204.79 170.986 204.982 171.788 205.366C172.589 205.751 173.207 206.299 173.64 207.01C174.082 207.722 174.303 208.568 174.303 209.55C174.303 210.498 174.115 211.382 173.739 212.199C173.362 213.009 172.835 213.815 172.156 214.616C171.477 215.41 170.684 216.252 169.776 217.143L165.875 221.032V221.118H175.039V222.983Z" fill="#333131" fill-opacity="0.8"/>
<path d="M183.59 204.79C184.628 204.79 185.549 204.953 186.35 205.28C187.152 205.607 187.777 206.09 188.227 206.728C188.685 207.358 188.914 208.135 188.914 209.059C188.914 209.787 188.755 210.425 188.436 210.973C188.125 211.512 187.704 211.987 187.172 212.396C186.64 212.797 186.052 213.156 185.405 213.475C186.174 213.827 186.865 214.224 187.479 214.665C188.1 215.107 188.591 215.626 188.951 216.223C189.311 216.82 189.491 217.528 189.491 218.346C189.491 219.352 189.245 220.223 188.755 220.959C188.272 221.687 187.593 222.247 186.718 222.64C185.843 223.032 184.817 223.228 183.639 223.228C182.371 223.228 181.292 223.04 180.4 222.664C179.517 222.28 178.842 221.732 178.376 221.02C177.918 220.3 177.689 219.438 177.689 218.432C177.689 217.606 177.865 216.89 178.216 216.285C178.568 215.671 179.034 215.144 179.615 214.702C180.196 214.26 180.829 213.888 181.516 213.586C180.919 213.259 180.371 212.886 179.873 212.469C179.382 212.052 178.989 211.566 178.695 211.009C178.409 210.445 178.265 209.791 178.265 209.047C178.265 208.139 178.494 207.37 178.952 206.74C179.419 206.102 180.052 205.62 180.854 205.293C181.664 204.957 182.576 204.79 183.59 204.79ZM179.689 218.444C179.689 219.36 180.012 220.116 180.658 220.714C181.304 221.302 182.281 221.597 183.59 221.597C184.833 221.597 185.794 221.302 186.473 220.714C187.152 220.116 187.491 219.335 187.491 218.37C187.491 217.773 187.336 217.25 187.025 216.8C186.714 216.342 186.272 215.933 185.7 215.573C185.127 215.213 184.453 214.886 183.676 214.592L183.234 214.432C182.482 214.743 181.84 215.091 181.308 215.475C180.784 215.851 180.384 216.281 180.106 216.763C179.828 217.246 179.689 217.806 179.689 218.444ZM183.565 206.458C182.6 206.458 181.811 206.691 181.198 207.157C180.584 207.615 180.277 208.278 180.277 209.145C180.277 209.766 180.425 210.294 180.719 210.727C181.022 211.153 181.431 211.521 181.946 211.831C182.461 212.134 183.038 212.416 183.676 212.678C184.297 212.416 184.849 212.13 185.332 211.819C185.814 211.5 186.195 211.124 186.473 210.69C186.751 210.257 186.89 209.738 186.89 209.132C186.89 208.266 186.583 207.603 185.97 207.145C185.365 206.687 184.563 206.458 183.565 206.458Z" fill="#333131" fill-opacity="0.8"/>
<path d="M169.099 198.086C168.915 198.086 168.754 198.076 168.616 198.054C168.475 198.036 168.355 198.013 168.257 197.985V196.798C168.355 196.82 168.461 196.84 168.574 196.858C168.685 196.879 168.803 196.89 168.929 196.89C169.094 196.89 169.243 196.858 169.375 196.794C169.507 196.732 169.611 196.614 169.688 196.439C169.764 196.265 169.803 196.013 169.803 195.685V189.382H171.229V195.676C171.229 196.252 171.138 196.717 170.957 197.07C170.779 197.425 170.529 197.683 170.207 197.843C169.888 198.005 169.519 198.086 169.099 198.086Z" fill="#333131" fill-opacity="0.8"/>
<path d="M177.531 190.965V196.108H176.455L176.266 195.45H176.193C176.082 195.625 175.944 195.768 175.779 195.878C175.613 195.989 175.431 196.07 175.231 196.122C175.032 196.174 174.825 196.2 174.61 196.2C174.242 196.2 173.922 196.136 173.649 196.007C173.376 195.875 173.163 195.671 173.009 195.395C172.859 195.119 172.784 194.76 172.784 194.319V190.965H174.187V193.969C174.187 194.337 174.253 194.614 174.385 194.802C174.517 194.989 174.727 195.082 175.015 195.082C175.3 195.082 175.524 195.018 175.687 194.889C175.849 194.757 175.963 194.565 176.027 194.314C176.095 194.059 176.128 193.75 176.128 193.385V190.965H177.531Z" fill="#333131" fill-opacity="0.8"/>
<path d="M180.407 196.108H179.004V188.95H180.407V196.108Z" fill="#333131" fill-opacity="0.8"/>
<path d="M181.148 190.965H182.684L183.655 193.858C183.685 193.95 183.712 194.044 183.733 194.139C183.754 194.234 183.773 194.332 183.788 194.434C183.804 194.535 183.816 194.641 183.825 194.751H183.853C183.871 194.585 183.896 194.43 183.926 194.286C183.96 194.142 184.001 194 184.05 193.858L185.003 190.965H186.507L184.331 196.766C184.199 197.122 184.027 197.418 183.816 197.654C183.604 197.893 183.36 198.073 183.084 198.192C182.811 198.312 182.511 198.372 182.183 198.372C182.023 198.372 181.885 198.362 181.769 198.344C181.652 198.329 181.552 198.312 181.47 198.293V197.18C181.534 197.195 181.615 197.209 181.713 197.221C181.812 197.234 181.914 197.24 182.022 197.24C182.218 197.24 182.387 197.198 182.528 197.116C182.669 197.033 182.787 196.921 182.882 196.78C182.977 196.642 183.052 196.49 183.107 196.324L183.19 196.071L181.148 190.965Z" fill="#333131" fill-opacity="0.8"/>
<path d="M157.021 233.662H198.478" stroke="white" stroke-width="5" stroke-linecap="round"/>
<g filter="url(#filter3_d_39_12080)">
<rect x="219.206" y="177.759" width="209.794" height="150.122" rx="9.45938" fill="white"/>
</g>
<path d="M293.953 287.681H380.634M293.953 297.731H343.928" stroke="#DCDCDC" stroke-width="6" stroke-linecap="round"/>
<circle cx="293.953" cy="275.747" r="3.14062" fill="#D9D9D9"/>
<circle cx="312.797" cy="275.747" r="3.14062" fill="#D9D9D9"/>
<circle cx="331.641" cy="275.747" r="3.14062" fill="#D9D9D9"/>
<circle cx="303.375" cy="275.747" r="3.14062" fill="#D9D9D9"/>
<circle cx="322.219" cy="275.747" r="3.14062" fill="#D9D9D9"/>
<circle cx="341.062" cy="275.747" r="3.14062" fill="#D9D9D9"/>
<path d="M280.762 271.35C279.768 271.35 278.797 271.645 277.971 272.197C277.144 272.749 276.5 273.534 276.12 274.452C275.739 275.37 275.64 276.381 275.834 277.355C276.028 278.33 276.506 279.226 277.209 279.928C277.912 280.631 278.807 281.11 279.782 281.304C280.757 281.497 281.767 281.398 282.685 281.018C283.603 280.637 284.388 279.993 284.94 279.167C285.493 278.34 285.787 277.369 285.787 276.375C285.785 275.043 285.255 273.767 284.313 272.825C283.371 271.883 282.094 271.353 280.762 271.35ZM283.468 276.762H280.762C280.66 276.762 280.561 276.721 280.489 276.648C280.416 276.576 280.376 276.478 280.376 276.375V273.669C280.376 273.567 280.416 273.468 280.489 273.396C280.561 273.324 280.66 273.283 280.762 273.283C280.865 273.283 280.963 273.324 281.036 273.396C281.108 273.468 281.149 273.567 281.149 273.669V275.989H283.468C283.571 275.989 283.669 276.029 283.741 276.102C283.814 276.174 283.855 276.273 283.855 276.375C283.855 276.478 283.814 276.576 283.741 276.648C283.669 276.721 283.571 276.762 283.468 276.762Z" fill="#625FFB"/>
<path d="M280.134 245.597C278.968 245.598 277.851 246.066 277.027 246.899C276.202 247.732 275.739 248.861 275.737 250.039C275.737 253.839 279.734 256.712 279.904 256.833C279.972 256.878 280.052 256.903 280.134 256.903C280.216 256.903 280.296 256.878 280.364 256.833C280.534 256.712 284.531 253.839 284.531 250.039C284.53 248.861 284.066 247.732 283.242 246.899C282.417 246.066 281.3 245.598 280.134 245.597ZM280.134 248.423C280.45 248.423 280.76 248.518 281.022 248.696C281.285 248.873 281.49 249.125 281.611 249.42C281.732 249.716 281.764 250.04 281.702 250.354C281.641 250.667 281.488 250.955 281.265 251.181C281.041 251.407 280.756 251.56 280.446 251.623C280.136 251.685 279.814 251.653 279.522 251.531C279.23 251.409 278.98 251.202 278.805 250.936C278.629 250.67 278.535 250.358 278.535 250.039C278.535 249.61 278.704 249.199 279.004 248.896C279.303 248.594 279.71 248.423 280.134 248.423Z" fill="#D9D9D9"/>
<path d="M295.837 249.365H390.684M295.837 259.415H350.519" stroke="#DCDCDC" stroke-width="6" stroke-linecap="round"/>
<path d="M278.878 221.099H376.865M278.878 231.777H335.371" stroke="#ECECEC" stroke-width="10" stroke-linecap="round"/>
<path d="M236.793 241.2H268.199" stroke="#E7E7E7" stroke-width="5" stroke-linecap="round"/>
<path d="M247.795 198L247.226 196.131H244.363L243.794 198H242L244.771 190.116H246.807L249.589 198H247.795ZM246.829 194.735L246.259 192.909C246.223 192.787 246.175 192.631 246.114 192.441C246.057 192.248 245.998 192.053 245.937 191.856C245.88 191.655 245.833 191.482 245.797 191.335C245.762 191.482 245.711 191.664 245.647 191.883C245.586 192.098 245.527 192.302 245.47 192.495C245.412 192.688 245.371 192.826 245.346 192.909L244.782 194.735H246.829ZM253.865 191.883C254.506 191.883 255.021 192.058 255.412 192.409C255.802 192.757 255.997 193.315 255.997 194.085V198H254.359V194.493C254.359 194.063 254.28 193.739 254.123 193.521C253.969 193.303 253.725 193.193 253.392 193.193C252.891 193.193 252.549 193.363 252.366 193.704C252.184 194.044 252.092 194.534 252.092 195.175V198H250.454V191.996H251.706L251.926 192.764H252.017C252.146 192.556 252.305 192.388 252.495 192.259C252.688 192.13 252.902 192.035 253.134 191.974C253.371 191.913 253.614 191.883 253.865 191.883ZM263.141 194.987C263.141 195.489 263.073 195.933 262.937 196.319C262.804 196.706 262.609 197.034 262.351 197.302C262.097 197.567 261.789 197.768 261.427 197.904C261.069 198.04 260.665 198.108 260.213 198.108C259.791 198.108 259.402 198.04 259.048 197.904C258.697 197.768 258.391 197.567 258.129 197.302C257.872 197.034 257.671 196.706 257.528 196.319C257.388 195.933 257.318 195.489 257.318 194.987C257.318 194.321 257.437 193.757 257.673 193.295C257.909 192.833 258.246 192.483 258.683 192.243C259.119 192.003 259.64 191.883 260.246 191.883C260.808 191.883 261.306 192.003 261.739 192.243C262.176 192.483 262.518 192.833 262.765 193.295C263.015 193.757 263.141 194.321 263.141 194.987ZM258.989 194.987C258.989 195.381 259.032 195.712 259.118 195.981C259.204 196.25 259.338 196.452 259.521 196.588C259.703 196.724 259.941 196.792 260.235 196.792C260.525 196.792 260.759 196.724 260.938 196.588C261.121 196.452 261.254 196.25 261.336 195.981C261.422 195.712 261.465 195.381 261.465 194.987C261.465 194.59 261.422 194.26 261.336 193.999C261.254 193.734 261.121 193.535 260.938 193.403C260.756 193.27 260.518 193.204 260.224 193.204C259.791 193.204 259.476 193.353 259.279 193.65C259.085 193.947 258.989 194.393 258.989 194.987ZM267.905 191.883C268.546 191.883 269.061 192.058 269.452 192.409C269.842 192.757 270.037 193.315 270.037 194.085V198H268.399V194.493C268.399 194.063 268.32 193.739 268.163 193.521C268.009 193.303 267.765 193.193 267.432 193.193C266.931 193.193 266.589 193.363 266.406 193.704C266.224 194.044 266.132 194.534 266.132 195.175V198H264.494V191.996H265.746L265.966 192.764H266.057C266.186 192.556 266.345 192.388 266.535 192.259C266.729 192.13 266.942 192.035 267.174 191.974C267.411 191.913 267.654 191.883 267.905 191.883ZM270.864 191.996H272.658L273.792 195.374C273.827 195.481 273.858 195.591 273.883 195.702C273.908 195.813 273.929 195.927 273.947 196.045C273.965 196.164 273.979 196.287 273.99 196.416H274.022C274.044 196.223 274.073 196.042 274.108 195.874C274.148 195.705 274.196 195.539 274.253 195.374L275.365 191.996H277.122L274.581 198.769C274.427 199.184 274.227 199.529 273.979 199.805C273.732 200.084 273.448 200.294 273.125 200.434C272.807 200.573 272.456 200.643 272.073 200.643C271.887 200.643 271.725 200.632 271.589 200.611C271.453 200.593 271.337 200.573 271.24 200.552V199.252C271.315 199.27 271.41 199.286 271.525 199.3C271.639 199.315 271.759 199.322 271.885 199.322C272.114 199.322 272.311 199.273 272.476 199.177C272.64 199.08 272.778 198.949 272.889 198.785C273 198.624 273.088 198.446 273.152 198.253L273.249 197.958L270.864 191.996ZM285.039 191.883C285.719 191.883 286.233 192.058 286.58 192.409C286.931 192.757 287.106 193.315 287.106 194.085V198H285.463V194.493C285.463 194.063 285.389 193.739 285.243 193.521C285.096 193.303 284.868 193.193 284.561 193.193C284.127 193.193 283.819 193.349 283.637 193.661C283.454 193.969 283.363 194.411 283.363 194.987V198H281.725V194.493C281.725 194.207 281.692 193.967 281.628 193.773C281.563 193.58 281.465 193.435 281.333 193.338C281.2 193.242 281.03 193.193 280.822 193.193C280.518 193.193 280.278 193.27 280.103 193.424C279.931 193.575 279.807 193.799 279.732 194.096C279.66 194.389 279.625 194.749 279.625 195.175V198H277.986V191.996H279.238L279.458 192.764H279.549C279.671 192.556 279.823 192.388 280.006 192.259C280.192 192.13 280.396 192.035 280.618 191.974C280.84 191.913 281.066 191.883 281.295 191.883C281.735 191.883 282.108 191.954 282.412 192.098C282.72 192.241 282.956 192.463 283.121 192.764H283.266C283.445 192.456 283.698 192.232 284.023 192.092C284.353 191.953 284.691 191.883 285.039 191.883ZM294.25 194.987C294.25 195.489 294.182 195.933 294.046 196.319C293.913 196.706 293.718 197.034 293.46 197.302C293.206 197.567 292.898 197.768 292.537 197.904C292.179 198.04 291.774 198.108 291.323 198.108C290.9 198.108 290.512 198.04 290.157 197.904C289.806 197.768 289.5 197.567 289.239 197.302C288.981 197.034 288.78 196.706 288.637 196.319C288.498 195.933 288.428 195.489 288.428 194.987C288.428 194.321 288.546 193.757 288.782 193.295C289.019 192.833 289.355 192.483 289.792 192.243C290.229 192.003 290.75 191.883 291.355 191.883C291.917 191.883 292.415 192.003 292.848 192.243C293.285 192.483 293.627 192.833 293.874 193.295C294.125 193.757 294.25 194.321 294.25 194.987ZM290.098 194.987C290.098 195.381 290.141 195.712 290.227 195.981C290.313 196.25 290.447 196.452 290.63 196.588C290.812 196.724 291.051 196.792 291.344 196.792C291.634 196.792 291.869 196.724 292.048 196.588C292.23 196.452 292.363 196.25 292.445 195.981C292.531 195.712 292.574 195.381 292.574 194.987C292.574 194.59 292.531 194.26 292.445 193.999C292.363 193.734 292.23 193.535 292.048 193.403C291.865 193.27 291.627 193.204 291.333 193.204C290.9 193.204 290.585 193.353 290.388 193.65C290.195 193.947 290.098 194.393 290.098 194.987ZM301.114 191.996V198H299.857L299.637 197.232H299.551C299.422 197.437 299.261 197.603 299.068 197.732C298.875 197.861 298.661 197.956 298.429 198.017C298.196 198.077 297.954 198.108 297.704 198.108C297.274 198.108 296.9 198.033 296.581 197.882C296.262 197.728 296.014 197.49 295.834 197.168C295.659 196.846 295.571 196.427 295.571 195.911V191.996H297.209V195.503C297.209 195.933 297.286 196.257 297.44 196.475C297.594 196.694 297.84 196.803 298.176 196.803C298.509 196.803 298.771 196.728 298.96 196.577C299.15 196.423 299.283 196.199 299.358 195.906C299.437 195.609 299.476 195.247 299.476 194.821V191.996H301.114ZM307.022 196.217C307.022 196.625 306.926 196.971 306.732 197.254C306.543 197.533 306.258 197.746 305.878 197.893C305.499 198.036 305.026 198.108 304.46 198.108C304.042 198.108 303.682 198.081 303.381 198.027C303.084 197.974 302.783 197.884 302.479 197.759V196.405C302.804 196.552 303.153 196.674 303.526 196.771C303.902 196.864 304.231 196.91 304.514 196.91C304.833 196.91 305.06 196.864 305.196 196.771C305.336 196.674 305.406 196.549 305.406 196.395C305.406 196.294 305.377 196.205 305.32 196.126C305.266 196.044 305.148 195.952 304.965 195.852C304.783 195.748 304.496 195.614 304.106 195.449C303.73 195.292 303.42 195.132 303.177 194.971C302.937 194.81 302.758 194.62 302.64 194.402C302.525 194.18 302.468 193.899 302.468 193.559C302.468 193.004 302.683 192.586 303.112 192.307C303.546 192.024 304.124 191.883 304.847 191.883C305.22 191.883 305.574 191.92 305.911 191.996C306.251 192.071 306.6 192.191 306.958 192.355L306.464 193.537C306.167 193.408 305.886 193.303 305.621 193.22C305.359 193.138 305.092 193.097 304.82 193.097C304.58 193.097 304.4 193.129 304.278 193.193C304.156 193.258 304.095 193.356 304.095 193.489C304.095 193.585 304.126 193.671 304.187 193.747C304.251 193.822 304.373 193.906 304.552 193.999C304.734 194.089 305.001 194.205 305.352 194.348C305.692 194.488 305.988 194.635 306.238 194.789C306.489 194.939 306.682 195.127 306.818 195.353C306.954 195.575 307.022 195.863 307.022 196.217ZM309.939 198H308.301V189.643H309.939V198ZM310.804 191.996H312.598L313.731 195.374C313.767 195.481 313.797 195.591 313.822 195.702C313.847 195.813 313.869 195.927 313.887 196.045C313.905 196.164 313.919 196.287 313.93 196.416H313.962C313.983 196.223 314.012 196.042 314.048 195.874C314.087 195.705 314.136 195.539 314.193 195.374L315.305 191.996H317.061L314.521 198.769C314.367 199.184 314.166 199.529 313.919 199.805C313.672 200.084 313.387 200.294 313.065 200.434C312.746 200.573 312.395 200.643 312.012 200.643C311.826 200.643 311.665 200.632 311.529 200.611C311.393 200.593 311.276 200.573 311.18 200.552V199.252C311.255 199.27 311.35 199.286 311.464 199.3C311.579 199.315 311.699 199.322 311.824 199.322C312.053 199.322 312.25 199.273 312.415 199.177C312.58 199.08 312.718 198.949 312.829 198.785C312.94 198.624 313.027 198.446 313.092 198.253L313.188 197.958L310.804 191.996Z" fill="black"/>
<g filter="url(#filter4_d_39_12080)">
<path d="M84.357 26.3502C86.5334 26.2556 89.6826 26.2633 92.1148 26.2904C93.1291 26.3017 93.5084 27.7148 92.7592 28.3986C92.0331 29.0612 91.3742 29.8448 90.6411 30.9164C90.4303 31.2245 90.0714 31.3989 89.6991 31.3701C88.6355 31.288 86.4439 31.1627 85.4064 31.4221C84.3654 31.6824 83.1423 32.6058 82.1436 33.8646C81.6711 34.4602 82.1382 35.2698 82.8984 35.2698H86.68C87.2323 35.2698 87.68 35.7175 87.68 36.2698V40.0413C87.68 40.5936 87.2323 41.0413 86.68 41.0413H83.155C82.3411 41.0413 81.8873 41.9504 82.4519 42.5367C83.5333 43.6598 84.6552 44.414 85.4064 44.5392C86.159 44.6646 88.0813 44.6101 89.1082 44.5693C89.514 44.5531 89.8896 44.7815 90.0766 45.142C90.6613 46.2694 91.2407 47.056 91.9011 47.6998C92.6279 48.4083 92.2441 49.786 91.229 49.786H84.357C82.3757 49.786 78.6153 50.154 76.0196 43.6647C74.9702 41.0413 74.563 38.5928 75.6123 34.5702C77.0115 29.6732 80.3344 26.5251 84.357 26.3502Z" fill="url(#paint0_linear_39_12080)"/>
</g>
<g filter="url(#filter5_d_39_12080)">
<path d="M110.443 42.8441C110.984 43.4237 111.935 43.1698 112.072 42.3888C112.571 39.526 112.905 35.435 112.067 33.4592C111.027 31.0102 109.218 28.9664 106.913 27.6372C104.609 26.308 101.934 25.7659 99.2931 26.0928C96.6527 26.4197 94.1906 27.5978 92.2796 29.4489C90.3685 31.3 89.1125 33.7232 88.7016 36.3519C88.2907 38.9806 88.7473 41.6715 90.0023 44.0175C91.2573 46.3635 93.2424 48.2368 95.6571 49.3539C97.7103 50.3037 103.713 50.0449 107.063 49.6004C107.773 49.5062 108.093 48.7052 107.681 48.1198L104.889 44.1545C104.668 43.8406 104.287 43.6825 103.907 43.7367C101.77 44.0416 99.3682 44.1353 98.2999 43.6411C97.1267 43.0984 96.1622 42.1882 95.5525 41.0484C94.9427 39.9086 94.7209 38.6012 94.9205 37.324C95.1201 36.0468 95.7304 34.8695 96.6589 33.9701C97.5874 33.0708 98.7836 32.4983 100.066 32.3395C101.349 32.1807 102.649 32.4441 103.769 33.0899C104.889 33.7357 105.768 34.7287 106.273 35.9186C106.7 36.926 107.007 37.4959 106.901 38.4081C106.862 38.7448 106.941 39.0918 107.172 39.3396L110.443 42.8441Z" fill="#003B43"/>
</g>
<g filter="url(#filter6_d_39_12080)">
<path d="M105.456 38.1324C105.456 40.7764 103.369 42.9197 100.795 42.9197C98.22 42.9197 96.1328 40.7764 96.1328 38.1324C96.1328 35.4885 98.22 33.3452 100.795 33.3452C103.369 33.3452 105.456 35.4885 105.456 38.1324Z" fill="#003B43"/>
<path d="M112.696 48.6863C113.475 48.5564 113.803 47.6169 113.274 47.0302L105.616 38.5361C105.22 38.0975 104.533 38.0953 104.134 38.5315L101.819 41.0673C101.471 41.4486 101.47 42.0322 101.818 42.4143L107.834 49.0322C108.062 49.2836 108.403 49.4017 108.738 49.3459L112.696 48.6863Z" fill="#003B43"/>
</g>
<defs>
<filter id="filter0_d_39_12080" x="0" y="22.1748" width="373.088" height="228.619" filterUnits="userSpaceOnUse" color-interpolation-filters="sRGB">
<feFlood flood-opacity="0" result="BackgroundImageFix"/>
<feColorMatrix in="SourceAlpha" type="matrix" values="0 0 0 0 0 0 0 0 0 0 0 0 0 0 0 0 0 0 127 0" result="hardAlpha"/>
<feOffset dy="14"/>
<feGaussianBlur stdDeviation="13.5"/>
<feComposite in2="hardAlpha" operator="out"/>
<feColorMatrix type="matrix" values="0 0 0 0 0.9125 0 0 0 0 0.9125 0 0 0 0 0.9125 0 0 0 1 0"/>
<feBlend mode="normal" in2="BackgroundImageFix" result="effect1_dropShadow_39_12080"/>
<feBlend mode="normal" in="SourceGraphic" in2="effect1_dropShadow_39_12080" result="shape"/>
</filter>
<filter id="filter1_d_39_12080" x="64.4561" y="5.93457" width="61.3906" height="61.3906" filterUnits="userSpaceOnUse" color-interpolation-filters="sRGB">
<feFlood flood-opacity="0" result="BackgroundImageFix"/>
<feColorMatrix in="SourceAlpha" type="matrix" values="0 0 0 0 0 0 0 0 0 0 0 0 0 0 0 0 0 0 127 0" result="hardAlpha"/>
<feOffset dy="-2"/>
<feGaussianBlur stdDeviation="2"/>
<feComposite in2="hardAlpha" operator="out"/>
<feColorMatrix type="matrix" values="0 0 0 0 0 0 0 0 0 0 0 0 0 0 0 0 0 0 0.25 0"/>
<feBlend mode="normal" in2="BackgroundImageFix" result="effect1_dropShadow_39_12080"/>
<feBlend mode="normal" in="SourceGraphic" in2="effect1_dropShadow_39_12080" result="shape"/>
</filter>
<filter id="filter2_d_39_12080" x="40.2002" y="137.75" width="119.953" height="123.094" filterUnits="userSpaceOnUse" color-interpolation-filters="sRGB">
<feFlood flood-opacity="0" result="BackgroundImageFix"/>
<feColorMatrix in="SourceAlpha" type="matrix" values="0 0 0 0 0 0 0 0 0 0 0 0 0 0 0 0 0 0 127 0" result="hardAlpha"/>
<feOffset dy="14"/>
<feGaussianBlur stdDeviation="13.5"/>
<feComposite in2="hardAlpha" operator="out"/>
<feColorMatrix type="matrix" values="0 0 0 0 0.925 0 0 0 0 0.925 0 0 0 0 0.925 0 0 0 1 0"/>
<feBlend mode="multiply" in2="BackgroundImageFix" result="effect1_dropShadow_39_12080"/>
<feBlend mode="normal" in="SourceGraphic" in2="effect1_dropShadow_39_12080" result="shape"/>
</filter>
<filter id="filter3_d_39_12080" x="180.206" y="172.759" width="265.794" height="206.122" filterUnits="userSpaceOnUse" color-interpolation-filters="sRGB">
<feFlood flood-opacity="0" result="BackgroundImageFix"/>
<feColorMatrix in="SourceAlpha" type="matrix" values="0 0 0 0 0 0 0 0 0 0 0 0 0 0 0 0 0 0 127 0" result="hardAlpha"/>
<feOffset dx="-11" dy="23"/>
<feGaussianBlur stdDeviation="14"/>
<feComposite in2="hardAlpha" operator="out"/>
<feColorMatrix type="matrix" values="0 0 0 0 0.95 0 0 0 0 0.95 0 0 0 0 0.95 0 0 0 1 0"/>
<feBlend mode="multiply" in2="BackgroundImageFix" result="effect1_dropShadow_39_12080"/>
<feBlend mode="normal" in="SourceGraphic" in2="effect1_dropShadow_39_12080" result="shape"/>
</filter>
<filter id="filter4_d_39_12080" x="71" y="26.2725" width="26.1523" height="31.5176" filterUnits="userSpaceOnUse" color-interpolation-filters="sRGB">
<feFlood flood-opacity="0" result="BackgroundImageFix"/>
<feColorMatrix in="SourceAlpha" type="matrix" values="0 0 0 0 0 0 0 0 0 0 0 0 0 0 0 0 0 0 127 0" result="hardAlpha"/>
<feOffset dy="4"/>
<feGaussianBlur stdDeviation="2"/>
<feComposite in2="hardAlpha" operator="out"/>
<feColorMatrix type="matrix" values="0 0 0 0 0 0 0 0 0 0 0 0 0 0 0 0 0 0 0.25 0"/>
<feBlend mode="normal" in2="BackgroundImageFix" result="effect1_dropShadow_39_12080"/>
<feBlend mode="normal" in="SourceGraphic" in2="effect1_dropShadow_39_12080" result="shape"/>
</filter>
<filter id="filter5_d_39_12080" x="84.5547" y="26" width="32.0234" height="32" filterUnits="userSpaceOnUse" color-interpolation-filters="sRGB">
<feFlood flood-opacity="0" result="BackgroundImageFix"/>
<feColorMatrix in="SourceAlpha" type="matrix" values="0 0 0 0 0 0 0 0 0 0 0 0 0 0 0 0 0 0 127 0" result="hardAlpha"/>
<feOffset dy="4"/>
<feGaussianBlur stdDeviation="2"/>
<feComposite in2="hardAlpha" operator="out"/>
<feColorMatrix type="matrix" values="0 0 0 0 0 0 0 0 0 0 0 0 0 0 0 0 0 0 0.25 0"/>
<feBlend mode="normal" in2="BackgroundImageFix" result="effect1_dropShadow_39_12080"/>
<feBlend mode="normal" in="SourceGraphic" in2="effect1_dropShadow_39_12080" result="shape"/>
</filter>
<filter id="filter6_d_39_12080" x="92.1328" y="33.3452" width="25.3994" height="24.0142" filterUnits="userSpaceOnUse" color-interpolation-filters="sRGB">
<feFlood flood-opacity="0" result="BackgroundImageFix"/>
<feColorMatrix in="SourceAlpha" type="matrix" values="0 0 0 0 0 0 0 0 0 0 0 0 0 0 0 0 0 0 127 0" result="hardAlpha"/>
<feOffset dy="4"/>
<feGaussianBlur stdDeviation="2"/>
<feComposite in2="hardAlpha" operator="out"/>
<feColorMatrix type="matrix" values="0 0 0 0 0 0 0 0 0 0 0 0 0 0 0 0 0 0 0.25 0"/>
<feBlend mode="normal" in2="BackgroundImageFix" result="effect1_dropShadow_39_12080"/>
<feBlend mode="normal" in="SourceGraphic" in2="effect1_dropShadow_39_12080" result="shape"/>
</filter>
<linearGradient id="paint0_linear_39_12080" x1="74.4456" y1="39.2923" x2="92.9843" y2="40.1668" gradientUnits="userSpaceOnUse">
<stop stop-color="#FFCF24"/>
<stop offset="1" stop-color="#FFEAA2"/>
</linearGradient>
</defs>
</svg>
