<svg width="460" height="354" viewBox="0 0 460 354" fill="none" xmlns="http://www.w3.org/2000/svg">
<rect width="460" height="353.897" rx="30" fill="#003B43" fill-opacity="0.8"/>
<circle cx="147.622" cy="212.865" r="67.8797" fill="#003B43" fill-opacity="0.8"/>
<circle cx="315.014" cy="136.418" r="94.2407" fill="#003B43" fill-opacity="0.8"/>
<path d="M320.278 86.3324H56.0176V76.3071C56.0176 73.1145 58.5183 70.5157 61.6113 70.5157H314.693C317.777 70.5157 320.287 73.1048 320.287 76.3071V86.3324H320.278Z" fill="#4B48C8"/>
<rect x="63.9258" y="74.4701" width="59.9713" height="7.90831" rx="3.95415" fill="#7C79FF"/>
<path d="M297.64 78.3068C297.64 79.6979 296.514 80.8256 295.124 80.8256C293.735 80.8256 292.608 79.6979 292.608 78.3068C292.608 76.9158 293.735 75.7881 295.124 75.7881C296.514 75.7881 297.64 76.9158 297.64 78.3068Z" fill="white"/>
<path d="M306.266 78.3068C306.266 79.6979 305.14 80.8256 303.75 80.8256C302.361 80.8256 301.234 79.6979 301.234 78.3068C301.234 76.9158 302.361 75.7881 303.75 75.7881C305.14 75.7881 306.266 76.9158 306.266 78.3068Z" fill="#E8F4FF"/>
<path d="M314.901 78.3068C314.901 79.6979 313.775 80.8256 312.385 80.8256C310.996 80.8256 309.869 79.6979 309.869 78.3068C309.869 76.9158 310.996 75.7881 312.385 75.7881C313.775 75.7881 314.901 76.9158 314.901 78.3068Z" fill="#CEDFFD"/>
<path d="M56.0176 86.3329H320.287V223.932C320.287 230.559 314.914 235.932 308.287 235.932H68.0176C61.3902 235.932 56.0176 230.559 56.0176 223.932V86.3329Z" fill="#F7F7F7"/>
<rect x="76.9473" y="96.0592" width="208.57" height="9.54441" rx="4.77221" fill="#EBF2EC" stroke="#B0D9B4"/>
<path d="M298.327 103.551L296.844 102.069C297.684 100.763 297.532 99.0024 296.389 97.864C295.073 96.5484 292.933 96.5484 291.618 97.864C290.302 99.1795 290.302 101.32 291.618 102.635C292.761 103.779 294.517 103.931 295.822 103.091L297.305 104.573C297.588 104.856 298.043 104.856 298.327 104.573C298.61 104.29 298.61 103.829 298.327 103.551ZM292.452 101.795C291.597 100.94 291.597 99.5488 292.452 98.6938C293.307 97.8387 294.699 97.8387 295.554 98.6938C296.409 99.5488 296.409 100.94 295.554 101.795C294.699 102.655 293.307 102.655 292.452 101.795Z" fill="#D9D9D9"/>
<rect x="188.481" y="131.147" width="92.9226" height="9.22636" rx="4.61318" fill="#E3E3E3"/>
<rect x="188.481" y="144.327" width="63.9255" height="9.22636" rx="4.61318" fill="#E3E3E3"/>
<rect x="182" y="193" width="34" height="12" rx="6" fill="#4F4F4F"/>
<path d="M190.786 196.628C190.546 196.628 190.332 196.672 190.143 196.758C189.956 196.845 189.798 196.97 189.668 197.134C189.538 197.296 189.439 197.493 189.371 197.725C189.302 197.956 189.268 198.215 189.268 198.505C189.268 198.892 189.323 199.226 189.432 199.506C189.542 199.784 189.708 199.998 189.931 200.149C190.154 200.297 190.437 200.371 190.779 200.371C190.991 200.371 191.197 200.35 191.397 200.309C191.598 200.268 191.805 200.213 192.02 200.142V200.839C191.817 200.919 191.612 200.977 191.404 201.014C191.197 201.05 190.958 201.068 190.687 201.068C190.176 201.068 189.752 200.962 189.415 200.75C189.08 200.538 188.829 200.24 188.663 199.855C188.499 199.47 188.417 199.019 188.417 198.501C188.417 198.123 188.469 197.777 188.574 197.462C188.679 197.148 188.832 196.877 189.032 196.649C189.233 196.419 189.48 196.242 189.774 196.119C190.07 195.994 190.409 195.931 190.789 195.931C191.04 195.931 191.286 195.96 191.527 196.016C191.771 196.071 191.997 196.15 192.204 196.252L191.917 196.929C191.744 196.847 191.563 196.776 191.374 196.717C191.184 196.658 190.988 196.628 190.786 196.628ZM193.814 195.682V197.018C193.814 197.157 193.809 197.293 193.8 197.425C193.793 197.557 193.785 197.659 193.776 197.732H193.821C193.901 197.6 193.999 197.492 194.115 197.408C194.231 197.321 194.361 197.256 194.504 197.213C194.65 197.169 194.805 197.148 194.969 197.148C195.259 197.148 195.505 197.197 195.708 197.295C195.91 197.391 196.065 197.54 196.172 197.743C196.282 197.945 196.336 198.209 196.336 198.532V201H195.533V198.682C195.533 198.389 195.473 198.169 195.352 198.023C195.231 197.875 195.044 197.801 194.792 197.801C194.548 197.801 194.354 197.852 194.21 197.954C194.069 198.055 193.968 198.204 193.906 198.402C193.845 198.598 193.814 198.837 193.814 199.12V201H193.011V195.682H193.814ZM198.968 197.144C199.306 197.144 199.595 197.214 199.836 197.353C200.078 197.492 200.264 197.689 200.394 197.944C200.523 198.199 200.588 198.505 200.588 198.86V199.291H198.062C198.072 199.658 198.17 199.94 198.356 200.139C198.546 200.337 198.81 200.436 199.149 200.436C199.391 200.436 199.607 200.413 199.799 200.368C199.993 200.32 200.192 200.25 200.397 200.159V200.812C200.208 200.901 200.015 200.966 199.819 201.007C199.623 201.048 199.389 201.068 199.115 201.068C198.744 201.068 198.417 200.996 198.134 200.853C197.854 200.707 197.634 200.491 197.475 200.203C197.317 199.916 197.239 199.56 197.239 199.134C197.239 198.71 197.311 198.35 197.454 198.054C197.598 197.757 197.799 197.532 198.059 197.377C198.319 197.222 198.622 197.144 198.968 197.144ZM198.968 197.749C198.715 197.749 198.51 197.831 198.353 197.995C198.198 198.16 198.107 198.4 198.08 198.717H199.802C199.8 198.528 199.768 198.36 199.707 198.214C199.647 198.068 199.556 197.954 199.433 197.872C199.312 197.79 199.157 197.749 198.968 197.749ZM202.978 197.144C203.456 197.144 203.817 197.25 204.061 197.462C204.307 197.674 204.43 198.005 204.43 198.453V201H203.859L203.706 200.463H203.678C203.571 200.6 203.461 200.713 203.347 200.802C203.233 200.891 203.101 200.957 202.95 201C202.802 201.045 202.621 201.068 202.407 201.068C202.181 201.068 201.979 201.027 201.802 200.945C201.624 200.861 201.484 200.733 201.381 200.562C201.279 200.391 201.228 200.175 201.228 199.913C201.228 199.523 201.372 199.231 201.662 199.035C201.953 198.839 202.393 198.73 202.981 198.71L203.637 198.686V198.488C203.637 198.226 203.576 198.039 203.453 197.927C203.332 197.815 203.161 197.76 202.94 197.76C202.751 197.76 202.567 197.787 202.39 197.842C202.212 197.896 202.039 197.964 201.87 198.043L201.61 197.476C201.795 197.378 202.005 197.298 202.239 197.237C202.476 197.175 202.722 197.144 202.978 197.144ZM203.634 199.192L203.145 199.209C202.744 199.223 202.463 199.291 202.301 199.414C202.139 199.537 202.058 199.706 202.058 199.92C202.058 200.107 202.114 200.243 202.226 200.33C202.337 200.414 202.484 200.456 202.667 200.456C202.944 200.456 203.175 200.378 203.357 200.221C203.542 200.061 203.634 199.828 203.634 199.52V199.192ZM207.496 197.144C207.945 197.144 208.305 197.308 208.576 197.637C208.85 197.965 208.986 198.452 208.986 199.099C208.986 199.528 208.923 199.889 208.795 200.183C208.67 200.475 208.493 200.696 208.265 200.846C208.04 200.994 207.776 201.068 207.476 201.068C207.284 201.068 207.118 201.043 206.977 200.993C206.835 200.943 206.715 200.878 206.614 200.798C206.514 200.716 206.43 200.627 206.361 200.532H206.313C206.325 200.623 206.335 200.724 206.344 200.836C206.356 200.945 206.361 201.045 206.361 201.137V202.678H205.555V197.216H206.211L206.324 197.739H206.361C206.432 197.632 206.517 197.533 206.618 197.442C206.72 197.351 206.843 197.279 206.987 197.226C207.133 197.172 207.302 197.144 207.496 197.144ZM207.281 197.801C207.06 197.801 206.882 197.845 206.748 197.934C206.615 198.021 206.519 198.152 206.457 198.327C206.398 198.502 206.366 198.722 206.361 198.987V199.099C206.361 199.38 206.39 199.618 206.447 199.814C206.506 200.008 206.603 200.156 206.737 200.258C206.874 200.358 207.059 200.409 207.291 200.409C207.487 200.409 207.649 200.355 207.776 200.248C207.906 200.141 208.003 199.988 208.067 199.79C208.131 199.592 208.163 199.358 208.163 199.089C208.163 198.681 208.09 198.365 207.944 198.139C207.8 197.913 207.579 197.801 207.281 197.801Z" fill="white"/>
<rect x="188.481" y="159.485" width="102.149" height="3.95415" rx="1.97708" fill="#EBEBEB"/>
<rect x="188.481" y="169.37" width="102.149" height="3.95415" rx="1.97708" fill="#EBEBEB"/>
<rect x="188.481" y="179.255" width="37.5645" height="3.95415" rx="1.97708" fill="#EBEBEB"/>
<rect x="76.4473" y="128.51" width="94.2407" height="82.3782" rx="6" fill="#EAEAEA"/>
<rect x="93.582" y="161.462" width="61.9484" height="3.95415" rx="1.97708" fill="#D9D9D9"/>
<rect x="93.582" y="171.347" width="61.9484" height="3.95415" rx="1.97708" fill="#D9D9D9"/>
<rect x="93.582" y="181.233" width="61.9484" height="3.95415" rx="1.97708" fill="#D9D9D9"/>
<rect x="93.582" y="191.118" width="23.0659" height="3.95415" rx="1.97708" fill="#D9D9D9"/>
<g clip-path="url(#clip0_39_11648)">
<path d="M116.711 142.39C120.918 134.529 117.956 124.746 110.095 120.538C102.234 116.331 92.4512 119.293 88.2439 127.154C84.0367 135.015 86.9985 144.798 94.8594 149.005C102.72 153.213 112.504 150.251 116.711 142.39Z" fill="#6CCB71"/>
<path d="M98.0705 141.798L94.1231 137.22C93.5575 136.566 93.6871 135.641 94.4059 135.158C95.1247 134.681 96.1734 134.822 96.739 135.476L98.8541 137.933C99.1369 138.263 99.6377 138.286 99.9559 137.992L108.611 129.85C109.241 129.26 110.225 129.296 110.814 129.926C111.403 130.557 111.368 131.54 110.738 132.13L100.315 141.922C99.6672 142.528 98.6479 142.47 98.0705 141.798Z" fill="white"/>
</g>
<path d="M258.873 312.914H388.825C392.398 312.914 395.291 310.016 395.291 306.437V149.485C395.291 145.906 392.398 143.009 388.825 143.009H258.873C255.3 143.009 252.407 145.906 252.407 149.485V306.437C252.407 310.016 255.3 312.914 258.873 312.914Z" fill="#DBDFFF"/>
<path d="M252.407 160.719H395.302V149.485C395.302 145.906 392.409 143.009 388.835 143.009H258.873C255.3 143.009 252.407 145.906 252.407 149.485V160.719Z" fill="#6252D7"/>
<path d="M288.507 152.459C288.507 154.708 290.32 156.524 292.566 156.524C294.811 156.524 296.625 154.708 296.625 152.459C296.625 150.21 294.811 148.393 292.566 148.393C290.32 148.393 288.507 150.22 288.507 152.459Z" fill="white"/>
<path d="M274.584 152.459C274.584 154.708 276.398 156.524 278.643 156.524C280.888 156.524 282.702 154.708 282.702 152.459C282.702 150.21 280.888 148.393 278.643 148.393C276.398 148.393 274.584 150.22 274.584 152.459Z" fill="#E8F4FF"/>
<path d="M260.667 152.459C260.667 154.708 262.481 156.524 264.726 156.524C266.971 156.524 268.785 154.708 268.785 152.459C268.785 150.21 266.971 148.393 264.726 148.393C262.481 148.393 260.667 150.221 260.667 152.459Z" fill="#B7C2FB"/>
<path d="M355.036 182.69H268.881V187.664H355.036V182.69Z" fill="white"/>
<path d="M372.686 182.69H362.506V187.664H372.686V182.69Z" fill="white"/>
<path d="M291.464 196.259H268.881V201.232H291.464V196.259Z" fill="white"/>
<path d="M337.472 196.259H305.918V201.232H337.472V196.259Z" fill="white"/>
<path d="M324.432 208.023H305.918V212.997H324.432V208.023Z" fill="white"/>
<path d="M343.408 208.023H330.691V212.997H343.408V208.023Z" fill="white"/>
<path d="M349.174 266.832H305.918V271.805H349.174V266.832Z" fill="white"/>
<path d="M324.432 219.787H305.918V224.76H324.432V219.787Z" fill="white"/>
<path d="M361.36 219.787H330.691V224.76H361.36V219.787Z" fill="white"/>
<path d="M291.464 231.54H268.881V236.514H291.464V231.54Z" fill="white"/>
<path d="M337.472 231.54H305.918V236.514H337.472V231.54Z" fill="white"/>
<path d="M324.432 243.304H305.918V248.277H324.432V243.304Z" fill="white"/>
<path d="M361.36 243.304H330.691V248.277H361.36V243.304Z" fill="white"/>
<path d="M324.432 255.068H305.918V260.042H324.432V255.068Z" fill="white"/>
<path d="M361.36 255.068H330.691V260.042H361.36V255.068Z" fill="white"/>
<path d="M324.432 290.349H305.918V295.322H324.432V290.349Z" fill="white"/>
<g filter="url(#filter0_d_39_11648)">
<circle cx="400.565" cy="262.622" r="25.8256" fill="#EBEBEB"/>
<circle cx="400.565" cy="262.622" r="25.5756" stroke="#D6D6D6" stroke-width="0.5"/>
</g>
<g filter="url(#filter1_d_39_11648)">
<path d="M390.357 251.35C392.533 251.255 395.683 251.263 398.115 251.29C399.129 251.301 399.508 252.715 398.759 253.398C398.033 254.061 397.374 254.845 396.641 255.916C396.43 256.224 396.071 256.399 395.699 256.37C394.636 256.288 392.444 256.162 391.406 256.422C390.365 256.682 389.142 257.606 388.144 258.864C387.671 259.46 388.138 260.27 388.898 260.27H392.68C393.232 260.27 393.68 260.717 393.68 261.27V265.041C393.68 265.593 393.232 266.041 392.68 266.041H389.155C388.341 266.041 387.887 266.95 388.452 267.536C389.533 268.66 390.655 269.414 391.406 269.539C392.159 269.664 394.081 269.61 395.108 269.569C395.514 269.553 395.89 269.781 396.077 270.142C396.661 271.269 397.241 272.056 397.901 272.7C398.628 273.408 398.244 274.786 397.229 274.786H390.357C388.376 274.786 384.615 275.154 382.02 268.664C380.97 266.041 380.563 263.593 381.612 259.57C383.011 254.673 386.334 251.525 390.357 251.35Z" fill="url(#paint0_linear_39_11648)"/>
</g>
<g filter="url(#filter2_d_39_11648)">
<path d="M416.443 267.844C416.984 268.424 417.935 268.17 418.072 267.389C418.571 264.526 418.905 260.435 418.067 258.459C417.027 256.01 415.218 253.966 412.913 252.637C410.609 251.308 407.934 250.766 405.293 251.093C402.653 251.42 400.191 252.598 398.28 254.449C396.369 256.3 395.112 258.723 394.702 261.352C394.291 263.981 394.747 266.672 396.002 269.018C397.257 271.363 399.242 273.237 401.657 274.354C403.71 275.304 409.713 275.045 413.063 274.6C413.773 274.506 414.093 273.705 413.681 273.12L410.889 269.154C410.668 268.841 410.287 268.682 409.907 268.737C407.77 269.042 405.368 269.135 404.3 268.641C403.127 268.098 402.162 267.188 401.552 266.048C400.943 264.909 400.721 263.601 400.921 262.324C401.12 261.047 401.73 259.869 402.659 258.97C403.587 258.071 404.784 257.498 406.066 257.34C407.349 257.181 408.649 257.444 409.769 258.09C410.889 258.736 411.768 259.729 412.273 260.919C412.7 261.926 413.007 262.496 412.901 263.408C412.862 263.745 412.941 264.092 413.172 264.34L416.443 267.844Z" fill="#003B43" fill-opacity="0.8" shape-rendering="crispEdges"/>
</g>
<g filter="url(#filter3_d_39_11648)">
<path d="M411.456 263.133C411.456 265.777 409.369 267.92 406.795 267.92C404.22 267.92 402.133 265.777 402.133 263.133C402.133 260.489 404.22 258.345 406.795 258.345C409.369 258.345 411.456 260.489 411.456 263.133Z" fill="#003B43" fill-opacity="0.8" shape-rendering="crispEdges"/>
<path d="M418.696 273.687C419.475 273.557 419.803 272.617 419.274 272.03L411.616 263.536C411.22 263.098 410.533 263.096 410.134 263.532L407.819 266.068C407.471 266.449 407.47 267.032 407.818 267.415L413.834 274.032C414.062 274.284 414.403 274.402 414.738 274.346L418.696 273.687Z" fill="#003B43" fill-opacity="0.8" shape-rendering="crispEdges"/>
</g>
<defs>
<filter id="filter0_d_39_11648" x="369.739" y="236.797" width="61.6514" height="63.6511" filterUnits="userSpaceOnUse" color-interpolation-filters="sRGB">
<feFlood flood-opacity="0" result="BackgroundImageFix"/>
<feColorMatrix in="SourceAlpha" type="matrix" values="0 0 0 0 0 0 0 0 0 0 0 0 0 0 0 0 0 0 127 0" result="hardAlpha"/>
<feOffset dy="7"/>
<feGaussianBlur stdDeviation="2.5"/>
<feComposite in2="hardAlpha" operator="out"/>
<feColorMatrix type="matrix" values="0 0 0 0 0.595833 0 0 0 0 0.595833 0 0 0 0 0.595833 0 0 0 0.25 0"/>
<feBlend mode="normal" in2="BackgroundImageFix" result="effect1_dropShadow_39_11648"/>
<feBlend mode="normal" in="SourceGraphic" in2="effect1_dropShadow_39_11648" result="shape"/>
</filter>
<filter id="filter1_d_39_11648" x="377" y="251.272" width="26.1523" height="31.5174" filterUnits="userSpaceOnUse" color-interpolation-filters="sRGB">
<feFlood flood-opacity="0" result="BackgroundImageFix"/>
<feColorMatrix in="SourceAlpha" type="matrix" values="0 0 0 0 0 0 0 0 0 0 0 0 0 0 0 0 0 0 127 0" result="hardAlpha"/>
<feOffset dy="4"/>
<feGaussianBlur stdDeviation="2"/>
<feComposite in2="hardAlpha" operator="out"/>
<feColorMatrix type="matrix" values="0 0 0 0 0 0 0 0 0 0 0 0 0 0 0 0 0 0 0.25 0"/>
<feBlend mode="normal" in2="BackgroundImageFix" result="effect1_dropShadow_39_11648"/>
<feBlend mode="normal" in="SourceGraphic" in2="effect1_dropShadow_39_11648" result="shape"/>
</filter>
<filter id="filter2_d_39_11648" x="390.555" y="251" width="32.0234" height="32" filterUnits="userSpaceOnUse" color-interpolation-filters="sRGB">
<feFlood flood-opacity="0" result="BackgroundImageFix"/>
<feColorMatrix in="SourceAlpha" type="matrix" values="0 0 0 0 0 0 0 0 0 0 0 0 0 0 0 0 0 0 127 0" result="hardAlpha"/>
<feOffset dy="4"/>
<feGaussianBlur stdDeviation="2"/>
<feComposite in2="hardAlpha" operator="out"/>
<feColorMatrix type="matrix" values="0 0 0 0 0 0 0 0 0 0 0 0 0 0 0 0 0 0 0.25 0"/>
<feBlend mode="normal" in2="BackgroundImageFix" result="effect1_dropShadow_39_11648"/>
<feBlend mode="normal" in="SourceGraphic" in2="effect1_dropShadow_39_11648" result="shape"/>
</filter>
<filter id="filter3_d_39_11648" x="398.133" y="258.345" width="25.3994" height="24.0143" filterUnits="userSpaceOnUse" color-interpolation-filters="sRGB">
<feFlood flood-opacity="0" result="BackgroundImageFix"/>
<feColorMatrix in="SourceAlpha" type="matrix" values="0 0 0 0 0 0 0 0 0 0 0 0 0 0 0 0 0 0 127 0" result="hardAlpha"/>
<feOffset dy="4"/>
<feGaussianBlur stdDeviation="2"/>
<feComposite in2="hardAlpha" operator="out"/>
<feColorMatrix type="matrix" values="0 0 0 0 0 0 0 0 0 0 0 0 0 0 0 0 0 0 0.25 0"/>
<feBlend mode="normal" in2="BackgroundImageFix" result="effect1_dropShadow_39_11648"/>
<feBlend mode="normal" in="SourceGraphic" in2="effect1_dropShadow_39_11648" result="shape"/>
</filter>
<linearGradient id="paint0_linear_39_11648" x1="380.446" y1="264.292" x2="398.984" y2="265.167" gradientUnits="userSpaceOnUse">
<stop stop-color="#FFCF24"/>
<stop offset="1" stop-color="#FFEAA2"/>
</linearGradient>
<clipPath id="clip0_39_11648">
<rect width="32.2923" height="32.2923" fill="white" transform="translate(86.333 118.625)"/>
</clipPath>
</defs>
</svg>
