<svg width="120" height="77" viewBox="0 0 120 77" fill="none" xmlns="http://www.w3.org/2000/svg">
<g filter="url(#filter0_d_38_31676)">
<path d="M30.7505 1.00005C39.3113 0.627846 53.1366 0.809794 59.6444 0.927113C60.6586 0.945397 61.003 2.30512 60.1441 2.84485C55.2337 5.9307 52.1035 8.92846 48.0859 14.99C47.8797 15.3013 47.5219 15.4773 47.1499 15.4445C44.9328 15.2487 37.1609 14.6475 33.7505 15.5001C30.1055 16.4113 25.6797 20.1663 22.6077 25.0443C22.2026 25.6876 22.6798 26.5001 23.44 26.5001H39.2505C39.8028 26.5001 40.2505 26.9478 40.2505 27.5001V42.0001C40.2505 42.5523 39.8028 43.0001 39.2505 43.0001H23.6966C22.8827 43.0001 22.4166 43.9161 22.9231 44.5532C26.6458 49.2355 31.0413 52.5485 33.7505 53.0001C36.2689 53.4198 43.3679 53.1348 45.5823 53.0325C45.9879 53.0138 46.3641 53.243 46.5419 53.6081C49.8046 60.3108 52.9058 63.0921 57.6591 66.111C58.516 66.6552 58.1528 68.0001 57.1377 68.0001H30.7505C25.0861 68.0001 14.3358 69.0521 6.9149 50.5C3.91491 43.0001 2.75054 36.0001 5.75051 24.5001C9.75054 10.5001 19.2505 1.50005 30.7505 1.00005Z" fill="url(#paint0_linear_38_31676)"/>
</g>
<g filter="url(#filter1_d_38_31676)">
<path d="M107.66 50.6551C108.201 51.2347 109.162 50.9878 109.33 50.213C111.055 42.2483 112.719 27.8059 109.968 21.325C106.997 14.3234 101.825 8.48043 95.2356 4.68054C88.6465 0.88066 80.9989 -0.669313 73.4503 0.265222C65.9017 1.19976 58.8629 4.56793 53.3995 9.85994C47.936 15.152 44.3451 22.0797 43.1704 29.5947C41.9958 37.1097 43.3012 44.8029 46.8891 51.5097C50.477 58.2166 56.1521 63.5721 63.0554 66.7657C69.5486 69.7695 89.8593 68.5451 98.4364 67.051C99.1418 66.9281 99.4582 66.117 99.0459 65.5316L88.7764 50.947C88.5554 50.6331 88.1743 50.474 87.795 50.5337C81.4174 51.5377 73.859 51.9362 70.6108 50.4336C67.2568 48.882 64.4995 46.28 62.7562 43.0214C61.013 39.7628 60.3788 36.0251 60.9495 32.3738C61.5203 28.7226 63.2649 25.3567 65.9194 22.7855C68.5738 20.2144 71.9937 18.5779 75.6612 18.1239C79.3288 17.6698 83.0444 18.4229 86.2458 20.2691C89.4471 22.1153 91.9599 24.9541 93.4039 28.3559C94.7745 31.5852 95.7119 33.2421 95.037 36.4689C94.9677 36.8007 95.0545 37.1496 95.2858 37.3974L107.66 50.6551Z" fill="#003B43" fill-opacity="0.9" shape-rendering="crispEdges"/>
</g>
<g filter="url(#filter2_d_38_31676)">
<path d="M91.0698 34.6861C91.0698 42.2447 85.1029 48.3722 77.7424 48.3722C70.3819 48.3722 64.415 42.2447 64.415 34.6861C64.415 27.1275 70.3819 21 77.7424 21C85.1029 21 91.0698 27.1275 91.0698 34.6861Z" fill="#003B43" fill-opacity="0.9" shape-rendering="crispEdges"/>
<path d="M115.114 64.3001C115.893 64.1703 116.221 63.2308 115.693 62.6441L90.1531 34.3185C89.7576 33.8799 89.0701 33.8778 88.6719 34.3139L79.5293 44.3272C79.1812 44.7085 79.1806 45.2921 79.5279 45.6741L98.5484 66.5967C98.7769 66.8481 99.1175 66.9662 99.4527 66.9104L115.114 64.3001Z" fill="#003B43" fill-opacity="0.9" shape-rendering="crispEdges"/>
</g>
<defs>
<filter id="filter0_d_38_31676" x="0" y="0.777832" width="64.6318" height="75.2329" filterUnits="userSpaceOnUse" color-interpolation-filters="sRGB">
<feFlood flood-opacity="0" result="BackgroundImageFix"/>
<feColorMatrix in="SourceAlpha" type="matrix" values="0 0 0 0 0 0 0 0 0 0 0 0 0 0 0 0 0 0 127 0" result="hardAlpha"/>
<feOffset dy="4"/>
<feGaussianBlur stdDeviation="2"/>
<feComposite in2="hardAlpha" operator="out"/>
<feColorMatrix type="matrix" values="0 0 0 0 0 0 0 0 0 0 0 0 0 0 0 0 0 0 0.25 0"/>
<feBlend mode="normal" in2="BackgroundImageFix" result="effect1_dropShadow_38_31676"/>
<feBlend mode="normal" in="SourceGraphic" in2="effect1_dropShadow_38_31676" result="shape"/>
</filter>
<filter id="filter1_d_38_31676" x="38.7505" y="0" width="76.6802" height="76.6128" filterUnits="userSpaceOnUse" color-interpolation-filters="sRGB">
<feFlood flood-opacity="0" result="BackgroundImageFix"/>
<feColorMatrix in="SourceAlpha" type="matrix" values="0 0 0 0 0 0 0 0 0 0 0 0 0 0 0 0 0 0 127 0" result="hardAlpha"/>
<feOffset dy="4"/>
<feGaussianBlur stdDeviation="2"/>
<feComposite in2="hardAlpha" operator="out"/>
<feColorMatrix type="matrix" values="0 0 0 0 0 0 0 0 0 0 0 0 0 0 0 0 0 0 0.25 0"/>
<feBlend mode="normal" in2="BackgroundImageFix" result="effect1_dropShadow_38_31676"/>
<feBlend mode="normal" in="SourceGraphic" in2="effect1_dropShadow_38_31676" result="shape"/>
</filter>
<filter id="filter2_d_38_31676" x="60.415" y="21" width="59.5356" height="53.9238" filterUnits="userSpaceOnUse" color-interpolation-filters="sRGB">
<feFlood flood-opacity="0" result="BackgroundImageFix"/>
<feColorMatrix in="SourceAlpha" type="matrix" values="0 0 0 0 0 0 0 0 0 0 0 0 0 0 0 0 0 0 127 0" result="hardAlpha"/>
<feOffset dy="4"/>
<feGaussianBlur stdDeviation="2"/>
<feComposite in2="hardAlpha" operator="out"/>
<feColorMatrix type="matrix" values="0 0 0 0 0 0 0 0 0 0 0 0 0 0 0 0 0 0 0.25 0"/>
<feBlend mode="normal" in2="BackgroundImageFix" result="effect1_dropShadow_38_31676"/>
<feBlend mode="normal" in="SourceGraphic" in2="effect1_dropShadow_38_31676" result="shape"/>
</filter>
<linearGradient id="paint0_linear_38_31676" x1="2.41491" y1="38" x2="55.4149" y2="40.5" gradientUnits="userSpaceOnUse">
<stop stop-color="#FFCF24"/>
<stop offset="1" stop-color="#FFEAA2"/>
</linearGradient>
</defs>
</svg>
