<svg width="273" height="165" viewBox="0 0 273 165" fill="none" xmlns="http://www.w3.org/2000/svg">
<path d="M65.3295 2.405C88.5466 1.39556 127.865 2.08102 139.887 2.32702C140.901 2.34777 141.23 3.69685 140.355 4.21046C125.734 12.7955 117.578 19.967 106.548 36.7603C106.343 37.0724 105.978 37.2514 105.606 37.2169C101.821 36.8652 81.2596 35.0956 72.5439 37.2745C63.2791 39.5907 51.9168 49.5469 44.518 62.2564C44.1355 62.9134 44.6156 63.7273 45.3758 63.7273H87.1751C87.7273 63.7273 88.1751 64.175 88.1751 64.7273V102.406C88.1751 102.959 87.7273 103.406 87.1751 103.406H45.6324C44.8185 103.406 44.3488 104.326 44.8365 104.977C54.1121 117.371 65.6187 126.3 72.5439 127.454C79.029 128.535 98.1445 127.673 101.943 127.488C102.349 127.468 102.72 127.702 102.895 128.069C111.844 146.792 120.19 153.072 134.368 161.66C135.236 162.186 134.887 163.526 133.872 163.526H65.3295C51.7078 163.526 25.8554 166.056 8.00975 121.442C0.795381 103.406 -2.0047 86.5728 5.20962 58.9177C14.8289 25.2506 37.6743 3.6074 65.3295 2.405Z" fill="url(#paint0_linear_269_8696)" stroke="#747474"/>
<path d="M252.042 123.704C252.583 124.284 253.549 124.035 253.729 123.263C258.058 104.794 262.747 67.5757 255.831 51.2823C248.684 34.4448 236.247 20.3937 220.402 11.2557C204.556 2.11781 186.165 -1.60956 168.012 0.637805C149.859 2.88517 132.933 10.9849 119.794 23.7111C106.656 36.4374 98.0203 53.0973 95.1954 71.1693C92.3706 89.2413 95.5098 107.742 104.138 123.87C112.766 139.999 126.414 152.878 143.015 160.558C159.185 168.038 210.989 164.615 230.19 160.859C230.892 160.721 231.198 159.909 230.785 159.324L204.361 121.796C204.14 121.482 203.76 121.322 203.382 121.384C187.868 123.9 169.144 124.965 161.184 121.283C153.118 117.551 146.487 111.294 142.295 103.458C138.103 95.6215 136.578 86.6329 137.951 77.8525C139.323 69.072 143.518 60.9777 149.902 54.7945C156.285 48.6114 164.509 44.6761 173.329 43.5842C182.149 42.4923 191.084 44.3032 198.783 48.743C206.481 53.1827 212.524 60.0096 215.997 68.1902C219.397 76.2008 221.688 80.188 219.759 88.4457C219.682 88.7757 219.77 89.127 220.001 89.3748L252.042 123.704Z" fill="#004C51"/>
<path d="M210.382 83.4127C210.382 101.59 196.033 116.325 178.333 116.325C160.632 116.325 146.283 101.59 146.283 83.4127C146.283 65.2358 160.632 50.5005 178.333 50.5005C196.033 50.5005 210.382 65.2358 210.382 83.4127Z" fill="#004C51"/>
<path d="M270.734 154.207C271.513 154.077 271.841 153.137 271.312 152.551L207.141 81.379C206.746 80.9403 206.058 80.9382 205.66 81.3743L181.767 107.543C181.419 107.924 181.418 108.508 181.766 108.89L228.882 160.718C229.111 160.969 229.451 161.087 229.786 161.031L270.734 154.207Z" fill="#004C51"/>
<defs>
<linearGradient id="paint0_linear_269_8696" x1="-2.81182" y1="91.3823" x2="124.642" y2="97.3943" gradientUnits="userSpaceOnUse">
<stop stop-color="#FFCF24"/>
<stop offset="1" stop-color="#FFEAA2"/>
</linearGradient>
</defs>
</svg>
